Varta-Light.ufo
<glyph name="slash" format="1">
  <advance width="723"/>
  <unicode hex="002F"/>
  <outline>
    <contour>
      <point x="19" y="-328" type="line" name="hr00"/>
      <point x="126" y="-328" type="line"/>
      <point x="703" y="1454" type="line"/>
      <point x="598" y="1454" type="line"/>
    </contour>
  </outline>
</glyph>
<glyph name="K" format="1">
  <advance width="1156"/>
  <unicode hex="004B"/>
  <outline>
    <contour>
      <point x="184" y="0" type="line"/>
      <point x="324" y="0" type="line"/>
      <point x="324" y="442" type="line"/>
      <point x="572" y="731" type="line"/>
      <point x="991" y="0" type="line"/>
      <point x="1148" y="0" type="line"/>
      <point x="661" y="839" type="line"/>
      <point x="1086" y="1346" type="line"/>
      <point x="926" y="1346" type="line"/>
      <point x="328" y="641" type="line"/>
      <point x="324" y="641" type="line"/>
      <point x="324" y="1346" type="line"/>
      <point x="184" y="1346" type="line"/>
    </contour>
    <contour>
      <point x="535" y="1050" type="move" name="top"/>
    </contour>
  </outline>
</glyph>
<glyph name="L" format="1">
  <advance width="967"/>
  <unicode hex="004C"/>
  <outline>
    <contour>
      <point x="184" y="0" type="line"/>
      <point x="924" y="0" type="line"/>
      <point x="924" y="119" type="line"/>
      <point x="324" y="119" type="line"/>
      <point x="324" y="1346" type="line"/>
      <point x="184" y="1346" type="line"/>
    </contour>
    <contour>
      <point x="554" y="1050" type="move" name="top"/>
    </contour>
  </outline>
</glyph>
<glyph name="O" format="1">
  <advance width="1338"/>
  <unicode hex="004F"/>
  <outline>
    <contour>
      <point x="668" y="-25" type="curve" smooth="yes"/>
      <point x="1007" y="-25"/>
      <point x="1235" y="238"/>
      <point x="1235" y="676" type="curve" smooth="yes"/>
      <point x="1235" y="1112"/>
      <point x="1007" y="1370"/>
      <point x="668" y="1370" type="curve" smooth="yes"/>
      <point x="328" y="1370"/>
      <point x="102" y="1113"/>
      <point x="102" y="676" type="curve" smooth="yes"/>
      <point x="102" y="238"/>
      <point x="328" y="-25"/>
    </contour>
    <contour>
      <point x="668" y="99" type="curve" smooth="yes"/>
      <point x="407" y="99"/>
      <point x="246" y="318"/>
      <point x="246" y="676" type="curve" smooth="yes"/>
      <point x="246" y="1033"/>
      <point x="407" y="1247"/>
      <point x="668" y="1247" type="curve" smooth="yes"/>
      <point x="927" y="1247"/>
      <point x="1091" y="1033"/>
      <point x="1091" y="676" type="curve" smooth="yes"/>
      <point x="1091" y="318"/>
      <point x="927" y="99"/>
    </contour>
    <contour>
      <point x="668" y="1050" type="move" name="top"/>
    </contour>
    <contour>
      <point x="695" y="-10" type="move" name="bottom"/>
    </contour>
  </outline>
</glyph>
<glyph name="V" format="1">
  <advance width="1022"/>
  <unicode hex="0056"/>
  <outline>
    <contour>
      <point x="433" y="0" type="line"/>
      <point x="593" y="0" type="line"/>
      <point x="1024" y="1346" type="line"/>
      <point x="883" y="1346" type="line"/>
      <point x="653" y="595" type="line"/>
      <point x="606" y="434"/>
      <point x="571" y="307"/>
      <point x="519" y="147" type="curve"/>
      <point x="511" y="147" type="line"/>
      <point x="459" y="307"/>
      <point x="425" y="434"/>
      <point x="376" y="595" type="curve" smooth="yes"/>
      <point x="146" y="1346" type="line"/>
      <point x="-2" y="1346" type="line"/>
    </contour>
    <contour>
      <point x="511" y="1050" type="move" name="top"/>
    </contour>
  </outline>
</glyph>
<glyph name="X" format="1">
  <advance width="1013"/>
  <unicode hex="0058"/>
  <outline>
    <contour>
      <point x="28" y="0" type="line"/>
      <point x="172" y="0" type="line"/>
      <point x="382" y="383" type="line"/>
      <point x="418" y="450"/>
      <point x="453" y="517"/>
      <point x="493" y="599" type="curve"/>
      <point x="501" y="599" type="line"/>
      <point x="546" y="517"/>
      <point x="584" y="450"/>
      <point x="620" y="383" type="curve" smooth="yes"/>
      <point x="833" y="0" type="line"/>
      <point x="986" y="0" type="line"/>
      <point x="590" y="689" type="line"/>
      <point x="959" y="1346" type="line"/>
      <point x="813" y="1346" type="line"/>
      <point x="617" y="980" type="line"/>
      <point x="584" y="919"/>
      <point x="558" y="866"/>
      <point x="521" y="790" type="curve"/>
      <point x="512" y="790" type="line"/>
      <point x="468" y="866"/>
      <point x="440" y="919"/>
      <point x="406" y="980" type="curve" smooth="yes"/>
      <point x="206" y="1346" type="line"/>
      <point x="53" y="1346" type="line"/>
      <point x="424" y="696" type="line"/>
    </contour>
    <contour>
      <point x="507" y="1050" type="move" name="top"/>
    </contour>
  </outline>
</glyph>
<glyph name="underscore" format="1">
  <advance width="1024"/>
  <unicode hex="005F"/>
  <outline>
    <contour>
      <point x="25" y="-152" type="line"/>
      <point x="25" y="-251" type="line"/>
      <point x="999" y="-251" type="line"/>
      <point x="999" y="-152" type="line"/>
    </contour>
  </outline>
</glyph>
<glyph name="grave" format="1">
  <advance width="1104"/>
  <unicode hex="0060"/>
  <outline>
    <contour>
      <point x="569" y="1173" type="line" name="hr00"/>
      <point x="677" y="1173" type="line"/>
      <point x="491" y="1457" type="line"/>
      <point x="344" y="1457" type="line"/>
    </contour>
    <contour>
      <point x="623" y="1050" type="move" name="_top"/>
    </contour>
  </outline>
</glyph>
<glyph name="g" format="1">
  <advance width="1018"/>
  <unicode hex="0067"/>
  <outline>
    <contour>
      <point x="222" y="-178" type="curve" smooth="yes"/>
      <point x="222" y="-114"/>
      <point x="254" y="-39"/>
      <point x="334" y="16" type="curve"/>
      <point x="380" y="4"/>
      <point x="429" y="0"/>
      <point x="460" y="0" type="curve" smooth="yes"/>
      <point x="648" y="0" type="line"/>
      <point x="791" y="0"/>
      <point x="860" y="-45"/>
      <point x="860" y="-144" type="curve" smooth="yes"/>
      <point x="860" y="-256"/>
      <point x="733" y="-364"/>
      <point x="525" y="-364" type="curve" smooth="yes"/>
      <point x="321" y="-364"/>
      <point x="222" y="-291"/>
    </contour>
    <contour>
      <point x="98" y="-195" type="curve" smooth="yes"/>
      <point x="98" y="-364"/>
      <point x="235" y="-465"/>
      <point x="505" y="-465" type="curve" smooth="yes"/>
      <point x="813" y="-465"/>
      <point x="994" y="-304"/>
      <point x="994" y="-126" type="curve" smooth="yes"/>
      <point x="994" y="36"/>
      <point x="902" y="115"/>
      <point x="669" y="115" type="curve" smooth="yes"/>
      <point x="456" y="115" type="line"/>
      <point x="316" y="115"/>
      <point x="275" y="165"/>
      <point x="275" y="231" type="curve" smooth="yes"/>
      <point x="275" y="291"/>
      <point x="307" y="319"/>
      <point x="345" y="352" type="curve"/>
      <point x="390" y="328"/>
      <point x="446" y="314"/>
      <point x="501" y="314" type="curve" smooth="yes"/>
      <point x="705" y="314"/>
      <point x="857" y="445"/>
      <point x="857" y="660" type="curve" smooth="yes"/>
      <point x="857" y="771"/>
      <point x="817" y="840"/>
      <point x="763" y="883" type="curve"/>
      <point x="977" y="883" type="line"/>
      <point x="977" y="990" type="line"/>
      <point x="637" y="990" type="line"/>
      <point x="602" y="1004"/>
      <point x="561" y="1015"/>
      <point x="501" y="1015" type="curve" smooth="yes"/>
      <point x="296" y="1015"/>
      <point x="137" y="894"/>
      <point x="137" y="664" type="curve" smooth="yes"/>
      <point x="137" y="540"/>
      <point x="200" y="448"/>
      <point x="264" y="395" type="curve"/>
      <point x="264" y="387" type="line"/>
      <point x="216" y="353"/>
      <point x="157" y="297"/>
      <point x="157" y="212" type="curve" smooth="yes"/>
      <point x="157" y="135"/>
      <point x="194" y="82"/>
      <point x="244" y="52" type="curve"/>
      <point x="244" y="44" type="line"/>
      <point x="153" y="-17"/>
      <point x="98" y="-107"/>
    </contour>
    <contour>
      <point x="501" y="410" type="curve" smooth="yes"/>
      <point x="376" y="410"/>
      <point x="271" y="504"/>
      <point x="271" y="664" type="curve" smooth="yes"/>
      <point x="271" y="831"/>
      <point x="368" y="912"/>
      <point x="501" y="912" type="curve" smooth="yes"/>
      <point x="633" y="912"/>
      <point x="729" y="834"/>
      <point x="729" y="664" type="curve" smooth="yes"/>
      <point x="729" y="502"/>
      <point x="623" y="410"/>
    </contour>
    <contour>
      <point x="546" y="1050" type="move" name="top"/>
    </contour>
  </outline>
</glyph>
<glyph name="o" format="1">
  <advance width="1104"/>
  <unicode hex="006F"/>
  <outline>
    <contour>
      <point x="100" y="494" type="curve" smooth="yes"/>
      <point x="100" y="162"/>
      <point x="306" y="-25"/>
      <point x="551" y="-25" type="curve" smooth="yes"/>
      <point x="797" y="-25"/>
      <point x="1005" y="162"/>
      <point x="1005" y="494" type="curve" smooth="yes"/>
      <point x="1005" y="831"/>
      <point x="797" y="1015"/>
      <point x="551" y="1015" type="curve" smooth="yes"/>
      <point x="306" y="1015"/>
      <point x="100" y="831"/>
    </contour>
    <contour>
      <point x="241" y="494" type="curve" smooth="yes"/>
      <point x="241" y="739"/>
      <point x="366" y="900"/>
      <point x="551" y="900" type="curve" smooth="yes"/>
      <point x="737" y="900"/>
      <point x="864" y="739"/>
      <point x="864" y="494" type="curve" smooth="yes"/>
      <point x="864" y="251"/>
      <point x="737" y="90"/>
      <point x="551" y="90" type="curve" smooth="yes"/>
      <point x="366" y="90"/>
      <point x="241" y="251"/>
    </contour>
    <contour>
      <point x="552" y="1050" type="move" name="top"/>
    </contour>
  </outline>
</glyph>
<glyph name="r" format="1">
  <advance width="686"/>
  <unicode hex="0072"/>
  <outline>
    <contour>
      <point x="176" y="0" type="line"/>
      <point x="313" y="0" type="line"/>
      <point x="313" y="652" type="line"/>
      <point x="383" y="826"/>
      <point x="486" y="890"/>
      <point x="571" y="890" type="curve" smooth="yes"/>
      <point x="611" y="890"/>
      <point x="632" y="885"/>
      <point x="665" y="874" type="curve"/>
      <point x="692" y="994" type="line"/>
      <point x="660" y="1010"/>
      <point x="630" y="1015"/>
      <point x="589" y="1015" type="curve" smooth="yes"/>
      <point x="475" y="1015"/>
      <point x="375" y="933"/>
      <point x="309" y="809" type="curve"/>
      <point x="302" y="809" type="line"/>
      <point x="290" y="990" type="line"/>
      <point x="176" y="990" type="line"/>
    </contour>
    <contour>
      <point x="361" y="1050" type="move" name="top"/>
    </contour>
  </outline>
</glyph>
<glyph name="braceleft" format="1">
  <advance width="600"/>
  <unicode hex="007B"/>
  <outline>
    <contour>
      <point x="229" y="-43" type="curve" smooth="yes" name="hr01"/>
      <point x="229" y="-252"/>
      <point x="306" y="-311"/>
      <point x="461" y="-311" type="curve" smooth="yes"/>
      <point x="546" y="-311" type="line"/>
      <point x="546" y="-230" type="line"/>
      <point x="485" y="-230" type="line"/>
      <point x="371" y="-230"/>
      <point x="341" y="-171"/>
      <point x="341" y="-34" type="curve" smooth="yes"/>
      <point x="341" y="94"/>
      <point x="353" y="204"/>
      <point x="353" y="346" type="curve" smooth="yes"/>
      <point x="353" y="471"/>
      <point x="324" y="541"/>
      <point x="238" y="565" type="curve"/>
      <point x="238" y="573" type="line"/>
      <point x="324" y="598"/>
      <point x="353" y="665"/>
      <point x="353" y="792" type="curve" smooth="yes"/>
      <point x="353" y="919"/>
      <point x="341" y="1051"/>
      <point x="341" y="1172" type="curve" smooth="yes"/>
      <point x="341" y="1309"/>
      <point x="371" y="1366"/>
      <point x="485" y="1366" type="curve" smooth="yes"/>
      <point x="546" y="1366" type="line"/>
      <point x="546" y="1450" type="line"/>
      <point x="461" y="1450" type="line"/>
      <point x="306" y="1450"/>
      <point x="229" y="1388"/>
      <point x="229" y="1182" type="curve" smooth="yes"/>
      <point x="229" y="1041"/>
      <point x="247" y="903"/>
      <point x="247" y="773" type="curve" smooth="yes"/>
      <point x="247" y="695"/>
      <point x="211" y="616"/>
      <point x="71" y="614" type="curve"/>
      <point x="71" y="525" type="line" name="hr02"/>
      <point x="211" y="523"/>
      <point x="247" y="444"/>
      <point x="247" y="362" type="curve" smooth="yes" name="hr03"/>
      <point x="247" y="223"/>
      <point x="229" y="107"/>
    </contour>
  </outline>
</glyph>
<glyph name="asciitilde" format="1">
  <advance width="1003"/>
  <unicode hex="007E"/>
  <outline>
    <contour>
      <point x="157" y="584" type="line" name="hr00"/>
      <point x="205" y="682"/>
      <point x="255" y="711"/>
      <point x="315" y="711" type="curve" smooth="yes"/>
      <point x="431" y="711"/>
      <point x="524" y="534"/>
      <point x="684" y="534" type="curve" smooth="yes"/>
      <point x="777" y="534"/>
      <point x="858" y="588"/>
      <point x="925" y="710" type="curve"/>
      <point x="846" y="767" type="line"/>
      <point x="801" y="676"/>
      <point x="748" y="641"/>
      <point x="687" y="641" type="curve" smooth="yes"/>
      <point x="571" y="641"/>
      <point x="477" y="818"/>
      <point x="317" y="818" type="curve" smooth="yes"/>
      <point x="232" y="818"/>
      <point x="139" y="769"/>
      <point x="77" y="639" type="curve"/>
    </contour>
  </outline>
</glyph>
<glyph name="currency" format="1">
  <advance width="1003"/>
  <unicode hex="00A4"/>
  <outline>
    <contour>
      <point x="132" y="220" type="line" name="hr00"/>
      <point x="270" y="361" type="line"/>
      <point x="334" y="306"/>
      <point x="416" y="277"/>
      <point x="501" y="277" type="curve" smooth="yes"/>
      <point x="585" y="277"/>
      <point x="669" y="306"/>
      <point x="732" y="361" type="curve"/>
      <point x="870" y="220" type="line"/>
      <point x="946" y="298" type="line"/>
      <point x="812" y="433" type="line"/>
      <point x="859" y="498"/>
      <point x="888" y="579"/>
      <point x="888" y="673" type="curve" smooth="yes"/>
      <point x="888" y="769"/>
      <point x="859" y="852"/>
      <point x="811" y="917" type="curve"/>
      <point x="946" y="1054" type="line"/>
      <point x="870" y="1132" type="line"/>
      <point x="732" y="989" type="line"/>
      <point x="669" y="1042"/>
      <point x="585" y="1071"/>
      <point x="501" y="1071" type="curve" smooth="yes"/>
      <point x="416" y="1071"/>
      <point x="333" y="1042"/>
      <point x="270" y="989" type="curve"/>
      <point x="132" y="1132" type="line"/>
      <point x="56" y="1054" type="line"/>
      <point x="189" y="917" type="line"/>
      <point x="141" y="852"/>
      <point x="114" y="769"/>
      <point x="114" y="673" type="curve" smooth="yes"/>
      <point x="114" y="579"/>
      <point x="141" y="498"/>
      <point x="189" y="433" type="curve"/>
      <point x="56" y="298" type="line"/>
    </contour>
    <contour>
      <point x="243" y="673" type="curve" smooth="yes"/>
      <point x="243" y="847"/>
      <point x="361" y="966"/>
      <point x="501" y="966" type="curve" smooth="yes"/>
      <point x="642" y="966"/>
      <point x="759" y="847"/>
      <point x="759" y="673" type="curve" smooth="yes"/>
      <point x="759" y="500"/>
      <point x="642" y="381"/>
      <point x="501" y="381" type="curve" smooth="yes"/>
      <point x="361" y="381"/>
      <point x="243" y="500"/>
    </contour>
  </outline>
</glyph>
<glyph name="section" format="1">
  <advance width="1003"/>
  <unicode hex="00A7"/>
  <outline>
    <contour>
      <point x="648" y="385" type="curve" name="hr01"/>
      <point x="478" y="491"/>
      <point x="219" y="524"/>
      <point x="219" y="719" type="curve" smooth="yes"/>
      <point x="219" y="811"/>
      <point x="273" y="864"/>
      <point x="356" y="911" type="curve"/>
      <point x="526" y="808"/>
      <point x="784" y="772"/>
      <point x="784" y="571" type="curve" smooth="yes"/>
      <point x="784" y="473"/>
      <point x="736" y="425"/>
    </contour>
    <contour>
      <point x="809" y="1285" type="line"/>
      <point x="733" y="1348"/>
      <point x="628" y="1399"/>
      <point x="506" y="1399" type="curve" smooth="yes"/>
      <point x="307" y="1399"/>
      <point x="209" y="1274"/>
      <point x="209" y="1143" type="curve" smooth="yes" name="hr02"/>
      <point x="209" y="1071"/>
      <point x="234" y="1018"/>
      <point x="275" y="976" type="curve"/>
      <point x="173" y="919"/>
      <point x="96" y="834"/>
      <point x="96" y="710" type="curve" smooth="yes" name="hr03"/>
      <point x="96" y="334"/>
      <point x="667" y="394"/>
      <point x="667" y="142" type="curve" smooth="yes"/>
      <point x="667" y="57"/>
      <point x="596" y="-13"/>
      <point x="481" y="-13" type="curve" smooth="yes"/>
      <point x="366" y="-13"/>
      <point x="291" y="30"/>
      <point x="222" y="95" type="curve"/>
      <point x="136" y="18" type="line"/>
      <point x="219" y="-67"/>
      <point x="337" y="-121"/>
      <point x="481" y="-121" type="curve" smooth="yes"/>
      <point x="659" y="-121"/>
      <point x="795" y="-7"/>
      <point x="795" y="149" type="curve" smooth="yes"/>
      <point x="795" y="220"/>
      <point x="771" y="274"/>
      <point x="731" y="318" type="curve"/>
      <point x="835" y="377"/>
      <point x="907" y="450"/>
      <point x="907" y="582" type="curve" smooth="yes" name="hr04"/>
      <point x="907" y="959"/>
      <point x="335" y="909"/>
      <point x="335" y="1149" type="curve" smooth="yes"/>
      <point x="335" y="1222"/>
      <point x="386" y="1289"/>
      <point x="510" y="1289" type="curve" smooth="yes"/>
      <point x="605" y="1289"/>
      <point x="675" y="1248"/>
      <point x="741" y="1195" type="curve"/>
    </contour>
  </outline>
</glyph>
<glyph name="thorn" format="1">
  <advance width="1128"/>
  <unicode hex="00FE"/>
  <outline>
    <contour>
      <point x="313" y="-85" type="line"/>
      <point x="311" y="89" type="line"/>
      <point x="406" y="17"/>
      <point x="498" y="-25"/>
      <point x="594" y="-25" type="curve" smooth="yes"/>
      <point x="823" y="-25"/>
      <point x="1026" y="173"/>
      <point x="1026" y="510" type="curve" smooth="yes"/>
      <point x="1026" y="817"/>
      <point x="890" y="1015"/>
      <point x="627" y="1015" type="curve" smooth="yes"/>
      <point x="513" y="1015"/>
      <point x="404" y="952"/>
      <point x="311" y="879" type="curve"/>
      <point x="313" y="1056" type="line"/>
      <point x="313" y="1464" type="line"/>
      <point x="176" y="1464" type="line"/>
      <point x="176" y="-430" type="line"/>
      <point x="313" y="-430" type="line"/>
    </contour>
    <contour>
      <point x="313" y="205" type="curve"/>
      <point x="313" y="752" type="line"/>
      <point x="419" y="847"/>
      <point x="511" y="899"/>
      <point x="601" y="899" type="curve" smooth="yes"/>
      <point x="805" y="899"/>
      <point x="883" y="738"/>
      <point x="883" y="510" type="curve" smooth="yes"/>
      <point x="883" y="255"/>
      <point x="753" y="92"/>
      <point x="575" y="92" type="curve" smooth="yes"/>
      <point x="506" y="92"/>
      <point x="412" y="122"/>
    </contour>
    <contour>
      <point x="601" y="1050" type="move" name="top"/>
    </contour>
  </outline>
</glyph>
<glyph name="Aogonek" format="1">
  <advance width="1086"/>
  <unicode hex="0104"/>
  <outline>
    <contour>
      <point x="323" y="545" type="line" name="hr00"/>
      <point x="398" y="770" type="line"/>
      <point x="448" y="923"/>
      <point x="493" y="1068"/>
      <point x="537" y="1228" type="curve"/>
      <point x="546" y="1228" type="line"/>
      <point x="590" y="1068"/>
      <point x="636" y="923"/>
      <point x="685" y="770" type="curve" smooth="yes"/>
      <point x="758" y="545" type="line"/>
    </contour>
    <contour>
      <point x="1108" y="-297" type="line"/>
      <point x="1083" y="-317"/>
      <point x="1057" y="-326"/>
      <point x="1021" y="-326" type="curve" smooth="yes"/>
      <point x="972" y="-326"/>
      <point x="924" y="-294"/>
      <point x="924" y="-227" type="curve" smooth="yes"/>
      <point x="924" y="-142"/>
      <point x="992" y="-46"/>
      <point x="1083" y="0" type="curve"/>
      <point x="620" y="1346" type="line"/>
      <point x="467" y="1346" type="line"/>
      <point x="3" y="0" type="line"/>
      <point x="145" y="0" type="line"/>
      <point x="286" y="432" type="line"/>
      <point x="795" y="432" type="line"/>
      <point x="935" y="0" type="line"/>
      <point x="964" y="0" type="line"/>
      <point x="891" y="-49"/>
      <point x="813" y="-147"/>
      <point x="813" y="-254" type="curve" smooth="yes"/>
      <point x="813" y="-370"/>
      <point x="895" y="-428"/>
      <point x="998" y="-428" type="curve" smooth="yes"/>
      <point x="1049" y="-428"/>
      <point x="1114" y="-403"/>
      <point x="1150" y="-375" type="curve"/>
    </contour>
  </outline>
</glyph>
<glyph name="eogonek" format="1">
  <advance width="1005"/>
  <unicode hex="0119"/>
  <outline>
    <contour>
      <point x="99" y="493" type="curve" smooth="yes"/>
      <point x="99" y="169"/>
      <point x="307" y="-25"/>
      <point x="567" y="-25" type="curve" smooth="yes"/>
      <point x="605" y="-25"/>
      <point x="641" y="-22"/>
      <point x="679" y="-8" type="curve"/>
      <point x="624" y="-56"/>
      <point x="554" y="-146"/>
      <point x="554" y="-249" type="curve" smooth="yes"/>
      <point x="554" y="-361"/>
      <point x="631" y="-420"/>
      <point x="731" y="-420" type="curve" smooth="yes"/>
      <point x="778" y="-420"/>
      <point x="844" y="-396"/>
      <point x="879" y="-368" type="curve"/>
      <point x="841" y="-296" type="line"/>
      <point x="815" y="-314"/>
      <point x="791" y="-323"/>
      <point x="756" y="-323" type="curve" smooth="yes"/>
      <point x="704" y="-323"/>
      <point x="658" y="-290"/>
      <point x="658" y="-224" type="curve" smooth="yes"/>
      <point x="658" y="-136"/>
      <point x="710" y="-52"/>
      <point x="887" y="76" type="curve"/>
      <point x="838" y="169" type="line"/>
      <point x="764" y="119"/>
      <point x="682" y="87"/>
      <point x="583" y="87" type="curve" smooth="yes"/>
      <point x="379" y="87"/>
      <point x="244" y="240"/>
      <point x="235" y="468" type="curve"/>
      <point x="922" y="468" type="line"/>
      <point x="926" y="493"/>
      <point x="927" y="518"/>
      <point x="927" y="553" type="curve" smooth="yes"/>
      <point x="927" y="840"/>
      <point x="784" y="1015"/>
      <point x="539" y="1015" type="curve" smooth="yes"/>
      <point x="314" y="1015"/>
      <point x="99" y="817"/>
    </contour>
    <contour>
      <point x="234" y="562" type="line"/>
      <point x="254" y="778"/>
      <point x="391" y="905"/>
      <point x="542" y="905" type="curve" smooth="yes"/>
      <point x="707" y="905"/>
      <point x="805" y="785"/>
      <point x="805" y="562" type="curve"/>
    </contour>
  </outline>
</glyph>
<glyph name="dotlessi" format="1">
  <advance width="490"/>
  <unicode hex="0131"/>
  <outline>
    <contour>
      <point x="176" y="0" type="line"/>
      <point x="313" y="0" type="line"/>
      <point x="313" y="990" type="line"/>
      <point x="176" y="990" type="line"/>
    </contour>
    <contour>
      <point x="244" y="1050" type="move" name="top"/>
    </contour>
  </outline>
</glyph>
<glyph name="uni0180" format="1">
  <advance width="1100"/>
  <unicode hex="0180"/>
  <outline>
    <contour>
      <point x="313" y="711" type="line"/>
      <point x="416" y="807"/>
      <point x="511" y="858"/>
      <point x="601" y="858" type="curve" smooth="yes"/>
      <point x="805" y="858"/>
      <point x="883" y="705"/>
      <point x="883" y="489" type="curve" smooth="yes"/>
      <point x="883" y="247"/>
      <point x="753" y="92"/>
      <point x="575" y="92" type="curve" smooth="yes"/>
      <point x="506" y="92"/>
      <point x="409" y="122"/>
      <point x="313" y="205" type="curve"/>
    </contour>
    <contour>
      <point x="313" y="1014" type="line"/>
      <point x="313" y="1178" type="line"/>
      <point x="692" y="1178" type="line"/>
      <point x="692" y="1263" type="line"/>
      <point x="313" y="1263" type="line"/>
      <point x="313" y="1464" type="line"/>
      <point x="176" y="1464" type="line"/>
      <point x="176" y="1263" type="line"/>
      <point x="22" y="1254" type="line"/>
      <point x="22" y="1178" type="line"/>
      <point x="176" y="1178" type="line"/>
      <point x="176" y="0" type="line"/>
      <point x="287" y="0" type="line"/>
      <point x="299" y="96" type="line"/>
      <point x="306" y="96" type="line"/>
      <point x="395" y="20"/>
      <point x="501" y="-25"/>
      <point x="594" y="-25" type="curve" smooth="yes"/>
      <point x="823" y="-25"/>
      <point x="1026" y="165"/>
      <point x="1026" y="490" type="curve" smooth="yes"/>
      <point x="1026" y="784"/>
      <point x="891" y="974"/>
      <point x="631" y="974" type="curve" smooth="yes"/>
      <point x="516" y="974"/>
      <point x="403" y="911"/>
      <point x="308" y="829" type="curve"/>
    </contour>
  </outline>
</glyph>
<glyph name="Uhorn" format="1">
  <advance width="1326"/>
  <unicode hex="01AF"/>
  <outline>
    <contour>
      <point x="1193" y="1567" type="line" name="hr00"/>
      <point x="1212" y="1540"/>
      <point x="1224" y="1514"/>
      <point x="1224" y="1485" type="curve" smooth="yes"/>
      <point x="1224" y="1395"/>
      <point x="1157" y="1362"/>
      <point x="1042" y="1346" type="curve"/>
      <point x="989" y="1346" type="line"/>
      <point x="989" y="542" type="line"/>
      <point x="989" y="204"/>
      <point x="835" y="99"/>
      <point x="649" y="99" type="curve" smooth="yes"/>
      <point x="469" y="99"/>
      <point x="318" y="204"/>
      <point x="318" y="542" type="curve" smooth="yes"/>
      <point x="318" y="1346" type="line"/>
      <point x="178" y="1346" type="line"/>
      <point x="178" y="540" type="line"/>
      <point x="178" y="112"/>
      <point x="392" y="-25"/>
      <point x="649" y="-25" type="curve" smooth="yes"/>
      <point x="906" y="-25"/>
      <point x="1122" y="112"/>
      <point x="1122" y="540" type="curve" smooth="yes"/>
      <point x="1122" y="1281" type="line"/>
      <point x="1237" y="1306"/>
      <point x="1340" y="1362"/>
      <point x="1340" y="1493" type="curve" smooth="yes"/>
      <point x="1340" y="1540"/>
      <point x="1321" y="1581"/>
      <point x="1295" y="1618" type="curve"/>
    </contour>
  </outline>
</glyph>
<glyph name="uni01EA" format="1">
  <advance width="1338"/>
  <unicode hex="01EA"/>
  <outline>
    <contour>
      <point x="545" y="-254" type="curve" smooth="yes" name="hr00"/>
      <point x="545" y="-370"/>
      <point x="628" y="-428"/>
      <point x="731" y="-428" type="curve" smooth="yes"/>
      <point x="781" y="-428"/>
      <point x="845" y="-403"/>
      <point x="881" y="-375" type="curve"/>
      <point x="841" y="-297" type="line"/>
      <point x="815" y="-317"/>
      <point x="789" y="-326"/>
      <point x="755" y="-326" type="curve" smooth="yes"/>
      <point x="706" y="-326"/>
      <point x="656" y="-294"/>
      <point x="656" y="-227" type="curve" smooth="yes"/>
      <point x="656" y="-156"/>
      <point x="706" y="-65"/>
      <point x="819" y="-15" type="curve" smooth="yes"/>
      <point x="1087" y="108"/>
      <point x="1236" y="314"/>
      <point x="1236" y="679" type="curve" smooth="yes"/>
      <point x="1236" y="1106"/>
      <point x="1001" y="1370"/>
      <point x="670" y="1370" type="curve" smooth="yes"/>
      <point x="337" y="1370"/>
      <point x="102" y="1107"/>
      <point x="102" y="679" type="curve" smooth="yes"/>
      <point x="102" y="257"/>
      <point x="322" y="-19"/>
      <point x="670" y="-24" type="curve"/>
      <point x="594" y="-84"/>
      <point x="545" y="-168"/>
    </contour>
    <contour>
      <point x="670" y="99" type="curve" smooth="yes"/>
      <point x="415" y="99"/>
      <point x="246" y="327"/>
      <point x="246" y="679" type="curve" smooth="yes"/>
      <point x="246" y="1029"/>
      <point x="415" y="1247"/>
      <point x="670" y="1247" type="curve" smooth="yes"/>
      <point x="923" y="1247"/>
      <point x="1091" y="1029"/>
      <point x="1091" y="679" type="curve" smooth="yes"/>
      <point x="1091" y="327"/>
      <point x="923" y="99"/>
    </contour>
  </outline>
</glyph>
<glyph name="w.sups" format="1">
  <advance width="979"/>
  <unicode hex="02B7"/>
  <outline>
    <contour>
      <point x="218" y="532" type="line"/>
      <point x="347" y="532" type="line"/>
      <point x="444" y="886" type="line"/>
      <point x="489" y="1074" type="line"/>
      <point x="493" y="1074" type="line"/>
      <point x="539" y="886" type="line"/>
      <point x="634" y="532" type="line"/>
      <point x="764" y="532" type="line"/>
      <point x="947" y="1189" type="line"/>
      <point x="844" y="1189" type="line"/>
      <point x="749" y="806" type="line"/>
      <point x="703" y="622" type="line"/>
      <point x="695" y="622" type="line"/>
      <point x="648" y="806" type="line"/>
      <point x="541" y="1189" type="line"/>
      <point x="440" y="1189" type="line"/>
      <point x="338" y="806" type="line"/>
      <point x="292" y="622" type="line"/>
      <point x="284" y="622" type="line"/>
      <point x="241" y="806" type="line"/>
      <point x="145" y="1189" type="line"/>
      <point x="33" y="1189" type="line"/>
    </contour>
  </outline>
</glyph>
<glyph name="uni02BB" format="1">
  <advance width="485"/>
  <unicode hex="02BB"/>
  <outline>
    <contour>
      <point x="317" y="1431" type="line"/>
      <point x="189" y="1353"/>
      <point x="118" y="1242"/>
      <point x="118" y="1085" type="curve" smooth="yes"/>
      <point x="118" y="979"/>
      <point x="161" y="920"/>
      <point x="231" y="920" type="curve" smooth="yes"/>
      <point x="287" y="920"/>
      <point x="328" y="959"/>
      <point x="328" y="1020" type="curve" smooth="yes"/>
      <point x="328" y="1081"/>
      <point x="280" y="1113"/>
      <point x="231" y="1113" type="curve" smooth="yes"/>
      <point x="225" y="1113"/>
      <point x="218" y="1113"/>
      <point x="213" y="1111" type="curve"/>
      <point x="213" y="1227"/>
      <point x="263" y="1295"/>
      <point x="361" y="1365" type="curve"/>
    </contour>
  </outline>
</glyph>
<glyph name="uni0326" format="1">
  <advance width="0"/>
  <unicode hex="0326"/>
  <outline>
    <contour>
      <point x="-56" y="-100" type="curve"/>
      <point x="-89" y="-171" type="line"/>
      <point x="-30" y="-184"/>
      <point x="21" y="-208"/>
      <point x="21" y="-265" type="curve" smooth="yes"/>
      <point x="21" y="-319"/>
      <point x="-55" y="-348"/>
      <point x="-165" y="-363" type="curve"/>
      <point x="-149" y="-436" type="line"/>
      <point x="-4" y="-423"/>
      <point x="131" y="-369"/>
      <point x="131" y="-255" type="curve" smooth="yes"/>
      <point x="131" y="-166"/>
      <point x="71" y="-122"/>
    </contour>
  </outline>
</glyph>
<glyph name="uu-deva" format="1">
  <advance width="1356"/>
  <unicode hex="090A"/>
  <outline>
    <contour>
      <point x="530" y="1247" type="line"/>
      <point x="530" y="1143" type="line"/>
      <point x="1369" y="1143" type="line"/>
      <point x="1369" y="1247" type="line"/>
    </contour>
    <contour>
      <point x="912" y="720"/>
      <point x="816" y="675"/>
      <point x="724" y="527" type="curve"/>
      <point x="747" y="351" type="line"/>
      <point x="839" y="548"/>
      <point x="916" y="610"/>
      <point x="1017" y="610" type="curve" smooth="yes"/>
      <point x="1117" y="610"/>
      <point x="1168" y="544"/>
      <point x="1168" y="432" type="curve" smooth="yes"/>
      <point x="1168" y="343"/>
      <point x="1131" y="236"/>
      <point x="1053" y="132" type="curve"/>
      <point x="1141" y="64" type="line"/>
      <point x="1247" y="189"/>
      <point x="1284" y="323"/>
      <point x="1284" y="428" type="curve" smooth="yes"/>
      <point x="1284" y="612"/>
      <point x="1172" y="720"/>
      <point x="1020" y="720" type="curve" smooth="yes"/>
    </contour>
    <component base="u-deva"/>
    <contour>
      <point x="509" y="1168" type="move" name="top"/>
    </contour>
    <contour>
      <point x="701" y="28" type="move" name="bottom"/>
    </contour>
    <contour>
      <point x="798" y="1167" type="move" name="topcandra"/>
    </contour>
  </outline>
</glyph>
<glyph name="ai-deva" format="1">
  <advance width="1020"/>
  <unicode hex="0910"/>
  <outline>
    <component base="e-deva"/>
    <component base="eMatra-deva" xOffset="538"/>
    <contour>
      <point x="943" y="1379" type="move" name="topcandra"/>
    </contour>
  </outline>
</glyph>
<glyph name="cha-deva" format="1">
  <advance width="1286"/>
  <unicode hex="091B"/>
  <outline>
    <contour>
      <point x="775" y="931"/>
      <point x="703" y="838"/>
      <point x="703" y="713" type="curve" smooth="yes"/>
      <point x="704" y="639"/>
      <point x="740" y="542"/>
      <point x="819" y="464" type="curve"/>
      <point x="893" y="521" type="line"/>
      <point x="833" y="592"/>
      <point x="817" y="655"/>
      <point x="817" y="706" type="curve" smooth="yes"/>
      <point x="817" y="783"/>
      <point x="867" y="834"/>
      <point x="949" y="834" type="curve" smooth="yes"/>
      <point x="1031" y="834"/>
      <point x="1095" y="779"/>
      <point x="1096" y="638" type="curve" smooth="yes"/>
      <point x="1097" y="379"/>
      <point x="843" y="198"/>
      <point x="534" y="198" type="curve" smooth="yes"/>
      <point x="329" y="198"/>
      <point x="229" y="282"/>
      <point x="229" y="422" type="curve" smooth="yes"/>
      <point x="229" y="614"/>
      <point x="402" y="635"/>
      <point x="544" y="636" type="curve"/>
      <point x="540" y="745" type="line"/>
      <point x="526" y="745"/>
      <point x="512" y="746"/>
      <point x="500" y="745" type="curve" smooth="yes"/>
      <point x="208" y="737"/>
      <point x="97" y="591"/>
      <point x="97" y="432" type="curve" smooth="yes"/>
      <point x="97" y="248"/>
      <point x="232" y="85"/>
      <point x="536" y="85" type="curve" smooth="yes"/>
      <point x="914" y="85"/>
      <point x="1217" y="322"/>
      <point x="1217" y="641" type="curve" smooth="yes"/>
      <point x="1217" y="853"/>
      <point x="1081" y="936"/>
      <point x="954" y="934" type="curve" smooth="yes"/>
    </contour>
    <contour>
      <point x="245" y="1205"/>
      <point x="94" y="1119"/>
      <point x="95" y="938" type="curve" smooth="yes"/>
      <point x="97" y="841"/>
      <point x="157" y="737"/>
      <point x="344" y="656" type="curve"/>
      <point x="410" y="706" type="line"/>
      <point x="275" y="773"/>
      <point x="225" y="844"/>
      <point x="225" y="945" type="curve" smooth="yes"/>
      <point x="225" y="1050"/>
      <point x="315" y="1133"/>
      <point x="465" y="1148" type="curve"/>
      <point x="482" y="1208" type="line"/>
    </contour>
    <contour>
      <point x="-12" y="1247" type="line"/>
      <point x="-12" y="1143" type="line"/>
      <point x="1299" y="1143" type="line"/>
      <point x="1299" y="1247" type="line"/>
    </contour>
    <contour>
      <point x="893" y="1198" type="line"/>
      <point x="893" y="891" type="line"/>
      <point x="1017" y="891" type="line"/>
      <point x="1017" y="1198" type="line"/>
    </contour>
    <contour>
      <point x="91" y="44" type="move" name="nukta"/>
    </contour>
    <contour>
      <point x="954" y="1168" type="move" name="top"/>
    </contour>
    <contour>
      <point x="668" y="1168" type="move" name="topcandra"/>
    </contour>
    <contour>
      <point x="600" y="119" type="move" name="bottom"/>
    </contour>
  </outline>
</glyph>
<glyph name="dha-deva" format="1">
  <advance width="1242"/>
  <unicode hex="0927"/>
  <outline>
    <contour>
      <point x="229" y="814"/>
      <point x="138" y="658"/>
      <point x="138" y="510" type="curve" smooth="yes"/>
      <point x="138" y="330"/>
      <point x="256" y="212"/>
      <point x="467" y="212" type="curve" smooth="yes"/>
      <point x="653" y="212"/>
      <point x="835" y="286"/>
      <point x="945" y="417" type="curve"/>
      <point x="921" y="551" type="line"/>
      <point x="812" y="403"/>
      <point x="638" y="328"/>
      <point x="469" y="328" type="curve" smooth="yes"/>
      <point x="334" y="328"/>
      <point x="269" y="390"/>
      <point x="269" y="508" type="curve" smooth="yes"/>
      <point x="269" y="636"/>
      <point x="357" y="703"/>
      <point x="579" y="711" type="curve"/>
      <point x="574" y="821" type="line"/>
    </contour>
    <contour>
      <point x="259" y="1267"/>
      <point x="84" y="1201"/>
      <point x="84" y="1009" type="curve" smooth="yes"/>
      <point x="84" y="891"/>
      <point x="154" y="791"/>
      <point x="339" y="728" type="curve"/>
      <point x="424" y="780" type="line"/>
      <point x="258" y="835"/>
      <point x="216" y="912"/>
      <point x="217" y="998" type="curve" smooth="yes"/>
      <point x="217" y="1126"/>
      <point x="318" y="1159"/>
      <point x="426" y="1159" type="curve" smooth="yes"/>
      <point x="466" y="1160"/>
      <point x="518" y="1156"/>
      <point x="569" y="1146" type="curve"/>
      <point x="586" y="1248" type="line"/>
      <point x="540" y="1261"/>
      <point x="477" y="1268"/>
      <point x="421" y="1267" type="curve" smooth="yes"/>
    </contour>
    <contour>
      <point x="901" y="1198" type="line"/>
      <point x="901" y="0" type="line"/>
      <point x="1028" y="0" type="line"/>
      <point x="1028" y="1198" type="line"/>
    </contour>
    <contour>
      <point x="753" y="1247" type="line"/>
      <point x="753" y="1143" type="line"/>
      <point x="1255" y="1143" type="line"/>
      <point x="1255" y="1247" type="line"/>
    </contour>
    <contour>
      <point x="307" y="44" type="move" name="nukta"/>
    </contour>
    <contour>
      <point x="965" y="1168" type="move" name="top"/>
    </contour>
    <contour>
      <point x="677" y="1168" type="move" name="topcandra"/>
    </contour>
    <contour>
      <point x="965" y="28" type="move" name="bottom"/>
    </contour>
  </outline>
</glyph>
<glyph name="na-deva" format="1">
  <advance width="1040"/>
  <unicode hex="0928"/>
  <outline>
    <contour>
      <point x="700" y="1191" type="line"/>
      <point x="700" y="0" type="line"/>
      <point x="826" y="0" type="line"/>
      <point x="826" y="1191" type="line"/>
    </contour>
    <contour>
      <point x="50" y="750" type="line"/>
      <point x="50" y="638" type="line"/>
      <point x="186" y="437" type="line"/>
      <point x="282" y="437"/>
      <point x="300" y="499"/>
      <point x="300" y="575" type="curve" smooth="yes"/>
      <point x="300" y="750" type="line"/>
    </contour>
    <contour>
      <point x="186" y="750" type="line"/>
      <point x="186" y="639" type="line"/>
      <point x="748" y="639" type="line"/>
      <point x="748" y="751" type="line"/>
    </contour>
    <contour>
      <point x="-12" y="1247" type="line"/>
      <point x="-12" y="1143" type="line"/>
      <point x="1053" y="1143" type="line"/>
      <point x="1053" y="1247" type="line"/>
    </contour>
    <contour>
      <point x="236" y="44" type="move" name="nukta"/>
    </contour>
    <contour>
      <point x="763" y="1168" type="move" name="top"/>
    </contour>
    <contour>
      <point x="479" y="1168" type="move" name="topcandra"/>
    </contour>
    <contour>
      <point x="763" y="28" type="move" name="bottom"/>
    </contour>
  </outline>
</glyph>
<glyph name="ha-deva" format="1">
  <advance width="989"/>
  <unicode hex="0939"/>
  <outline>
    <contour>
      <point x="341" y="549"/>
      <point x="98" y="484"/>
      <point x="98" y="220" type="curve" smooth="yes"/>
      <point x="98" y="17"/>
      <point x="274" y="-216"/>
      <point x="777" y="-335" type="curve"/>
      <point x="805" y="-234" type="line"/>
      <point x="651" y="-195"/>
      <point x="227" y="-82"/>
      <point x="224" y="208" type="curve" smooth="yes"/>
      <point x="224" y="359"/>
      <point x="328" y="436"/>
      <point x="534" y="436" type="curve" smooth="yes"/>
      <point x="692" y="436"/>
      <point x="779" y="390"/>
      <point x="779" y="290" type="curve" smooth="yes"/>
      <point x="779" y="205"/>
      <point x="706" y="158"/>
      <point x="614" y="141" type="curve"/>
      <point x="646" y="41" type="line"/>
      <point x="789" y="57"/>
      <point x="892" y="155"/>
      <point x="892" y="288" type="curve" smooth="yes"/>
      <point x="892" y="468"/>
      <point x="750" y="549"/>
      <point x="535" y="549" type="curve" smooth="yes"/>
    </contour>
    <contour>
      <point x="689" y="1180" type="line"/>
      <point x="689" y="921" type="line"/>
      <point x="374" y="921" type="line" smooth="yes"/>
      <point x="222" y="921"/>
      <point x="127" y="864"/>
      <point x="125" y="747" type="curve" smooth="yes"/>
      <point x="124" y="651"/>
      <point x="170" y="558"/>
      <point x="254" y="451" type="curve"/>
      <point x="339" y="481" type="line"/>
      <point x="287" y="566"/>
      <point x="248" y="648"/>
      <point x="251" y="720" type="curve" smooth="yes"/>
      <point x="254" y="784"/>
      <point x="303" y="810"/>
      <point x="400" y="810" type="curve" smooth="yes"/>
      <point x="816" y="810" type="line"/>
      <point x="816" y="1180" type="line"/>
    </contour>
    <contour>
      <point x="-12" y="1247" type="line"/>
      <point x="-12" y="1143" type="line"/>
      <point x="1002" y="1143" type="line"/>
      <point x="1002" y="1247" type="line"/>
    </contour>
    <contour>
      <point x="220" y="-267" type="move" name="nukta"/>
    </contour>
    <contour>
      <point x="752" y="1168" type="move" name="top"/>
    </contour>
    <contour>
      <point x="537" y="1168" type="move" name="topcandra"/>
    </contour>
    <contour>
      <point x="691" y="-260" type="move" name="bottom"/>
    </contour>
  </outline>
</glyph>
<glyph name="anudatta-deva" format="1">
  <advance width="540"/>
  <unicode hex="0952"/>
  <outline>
    <contour>
      <point x="-824" y="-324" type="line"/>
      <point x="-824" y="-425" type="line"/>
      <point x="-134" y="-425" type="line"/>
      <point x="-134" y="-324" type="line"/>
    </contour>
  </outline>
</glyph>
<glyph name="ueMatra-deva" format="1">
  <advance width="540"/>
  <unicode hex="0956"/>
  <outline>
    <contour>
      <point x="-30" y="18" type="line"/>
      <point x="17" y="-79"/>
      <point x="115" y="-173"/>
      <point x="273" y="-173" type="curve" smooth="yes"/>
      <point x="408" y="-173"/>
      <point x="512" y="-103"/>
      <point x="573" y="21" type="curve"/>
      <point x="496" y="68" type="line"/>
      <point x="454" y="2"/>
      <point x="386" y="-62"/>
      <point x="268" y="-62" type="curve" smooth="yes"/>
      <point x="146" y="-62"/>
      <point x="81" y="-6"/>
      <point x="36" y="66" type="curve"/>
    </contour>
  </outline>
</glyph>
<glyph name="seven-deva" format="1">
  <advance width="1097"/>
  <unicode hex="096D"/>
  <outline>
    <contour>
      <point x="167" y="1110"/>
      <point x="110" y="888"/>
      <point x="107" y="637" type="curve" smooth="yes"/>
      <point x="103" y="359"/>
      <point x="193" y="53"/>
      <point x="556" y="53" type="curve" smooth="yes"/>
      <point x="926" y="53"/>
      <point x="988" y="395"/>
      <point x="988" y="630" type="curve" smooth="yes"/>
      <point x="988" y="950"/>
      <point x="869" y="1102"/>
      <point x="667" y="1097" type="curve" smooth="yes"/>
      <point x="498" y="1093"/>
      <point x="421" y="982"/>
      <point x="421" y="833" type="curve" smooth="yes"/>
      <point x="421" y="668"/>
      <point x="529" y="541"/>
      <point x="672" y="488" type="curve"/>
      <point x="727" y="570" type="line"/>
      <point x="567" y="643"/>
      <point x="534" y="736"/>
      <point x="534" y="828" type="curve" smooth="yes"/>
      <point x="534" y="932"/>
      <point x="583" y="988"/>
      <point x="674" y="988" type="curve" smooth="yes"/>
      <point x="814" y="988"/>
      <point x="868" y="860"/>
      <point x="868" y="637" type="curve" smooth="yes"/>
      <point x="868" y="415"/>
      <point x="817" y="169"/>
      <point x="562" y="169" type="curve" smooth="yes"/>
      <point x="335" y="169"/>
      <point x="232" y="317"/>
      <point x="232" y="639" type="curve" smooth="yes"/>
      <point x="232" y="842"/>
      <point x="283" y="1070"/>
      <point x="362" y="1241" type="curve"/>
      <point x="245" y="1285" type="line"/>
    </contour>
  </outline>
</glyph>
<glyph name="b.sups" format="1">
  <advance width="760"/>
  <unicode hex="1D47"/>
  <outline>
    <contour>
      <point x="111" y="532" type="line"/>
      <point x="194" y="532" type="line"/>
      <point x="204" y="597" type="line"/>
      <point x="213" y="597" type="line"/>
      <point x="271" y="545"/>
      <point x="341" y="516"/>
      <point x="403" y="516" type="curve" smooth="yes"/>
      <point x="556" y="516"/>
      <point x="689" y="647"/>
      <point x="689" y="872" type="curve" smooth="yes"/>
      <point x="689" y="1075"/>
      <point x="597" y="1205"/>
      <point x="423" y="1205" type="curve" smooth="yes"/>
      <point x="344" y="1205"/>
      <point x="276" y="1161"/>
      <point x="212" y="1108" type="curve"/>
      <point x="217" y="1230" type="line"/>
      <point x="217" y="1496" type="line"/>
      <point x="111" y="1496" type="line"/>
    </contour>
    <contour>
      <point x="217" y="677" type="curve"/>
      <point x="217" y="1021" type="line"/>
      <point x="280" y="1080"/>
      <point x="343" y="1115"/>
      <point x="400" y="1115" type="curve" smooth="yes"/>
      <point x="525" y="1115"/>
      <point x="579" y="1018"/>
      <point x="579" y="871" type="curve" smooth="yes"/>
      <point x="579" y="705"/>
      <point x="498" y="606"/>
      <point x="391" y="606" type="curve" smooth="yes"/>
      <point x="340" y="606"/>
      <point x="276" y="625"/>
    </contour>
  </outline>
</glyph>
<glyph name="t.sups" format="1">
  <advance width="461"/>
  <unicode hex="1D57"/>
  <outline>
    <contour>
      <point x="134" y="739" type="line"/>
      <point x="134" y="607"/>
      <point x="181" y="516"/>
      <point x="322" y="516" type="curve" smooth="yes"/>
      <point x="363" y="516"/>
      <point x="412" y="528"/>
      <point x="448" y="541" type="curve"/>
      <point x="424" y="621" type="line"/>
      <point x="399" y="611"/>
      <point x="372" y="604"/>
      <point x="346" y="604" type="curve" smooth="yes"/>
      <point x="271" y="604"/>
      <point x="241" y="653"/>
      <point x="241" y="735" type="curve" smooth="yes"/>
      <point x="241" y="1101" type="line"/>
      <point x="426" y="1101" type="line"/>
      <point x="426" y="1189" type="line"/>
      <point x="241" y="1189" type="line"/>
      <point x="241" y="1375" type="line"/>
      <point x="152" y="1375" type="line"/>
      <point x="137" y="1189" type="line"/>
      <point x="35" y="1183" type="line"/>
      <point x="35" y="1101" type="line"/>
      <point x="134" y="1101" type="line"/>
    </contour>
  </outline>
</glyph>
<glyph name="perthousand" format="1">
  <advance width="2418"/>
  <unicode hex="2030"/>
  <outline>
    <contour>
      <point x="505" y="-25" type="line" name="hr00"/>
      <point x="1251" y="1370" type="line"/>
      <point x="1151" y="1370" type="line"/>
      <point x="405" y="-25" type="line"/>
    </contour>
    <contour>
      <point x="375" y="522" type="curve" smooth="yes"/>
      <point x="555" y="522"/>
      <point x="673" y="677"/>
      <point x="673" y="948" type="curve" smooth="yes"/>
      <point x="673" y="1219"/>
      <point x="555" y="1370"/>
      <point x="375" y="1370" type="curve" smooth="yes"/>
      <point x="193" y="1370"/>
      <point x="76" y="1219"/>
      <point x="76" y="948" type="curve" smooth="yes"/>
      <point x="76" y="677"/>
      <point x="193" y="522"/>
    </contour>
    <contour>
      <point x="375" y="612" type="curve" smooth="yes"/>
      <point x="259" y="612"/>
      <point x="184" y="730"/>
      <point x="184" y="948" type="curve" smooth="yes"/>
      <point x="184" y="1169"/>
      <point x="259" y="1282"/>
      <point x="375" y="1282" type="curve" smooth="yes"/>
      <point x="488" y="1282"/>
      <point x="564" y="1169"/>
      <point x="564" y="948" type="curve" smooth="yes"/>
      <point x="564" y="730"/>
      <point x="488" y="612"/>
    </contour>
    <contour>
      <point x="1293" y="-25" type="curve" smooth="yes"/>
      <point x="1474" y="-25"/>
      <point x="1591" y="128"/>
      <point x="1591" y="401" type="curve" smooth="yes"/>
      <point x="1591" y="671"/>
      <point x="1474" y="823"/>
      <point x="1293" y="823" type="curve" smooth="yes"/>
      <point x="1112" y="823"/>
      <point x="994" y="671"/>
      <point x="994" y="401" type="curve" smooth="yes"/>
      <point x="994" y="128"/>
      <point x="1112" y="-25"/>
    </contour>
    <contour>
      <point x="1293" y="65" type="curve" smooth="yes"/>
      <point x="1179" y="65"/>
      <point x="1102" y="182"/>
      <point x="1102" y="401" type="curve" smooth="yes"/>
      <point x="1102" y="620"/>
      <point x="1179" y="734"/>
      <point x="1293" y="734" type="curve" smooth="yes"/>
      <point x="1407" y="734"/>
      <point x="1483" y="620"/>
      <point x="1483" y="401" type="curve" smooth="yes"/>
      <point x="1483" y="182"/>
      <point x="1407" y="65"/>
    </contour>
    <contour>
      <point x="2044" y="-25" type="curve" smooth="yes"/>
      <point x="2226" y="-25"/>
      <point x="2344" y="128"/>
      <point x="2344" y="401" type="curve" smooth="yes"/>
      <point x="2344" y="671"/>
      <point x="2226" y="823"/>
      <point x="2044" y="823" type="curve" smooth="yes"/>
      <point x="1863" y="823"/>
      <point x="1745" y="671"/>
      <point x="1745" y="401" type="curve" smooth="yes"/>
      <point x="1745" y="128"/>
      <point x="1863" y="-25"/>
    </contour>
    <contour>
      <point x="2044" y="65" type="curve" smooth="yes"/>
      <point x="1930" y="65"/>
      <point x="1854" y="182"/>
      <point x="1854" y="401" type="curve" smooth="yes"/>
      <point x="1854" y="620"/>
      <point x="1930" y="734"/>
      <point x="2044" y="734" type="curve" smooth="yes"/>
      <point x="2159" y="734"/>
      <point x="2235" y="620"/>
      <point x="2235" y="401" type="curve" smooth="yes"/>
      <point x="2235" y="182"/>
      <point x="2159" y="65"/>
    </contour>
  </outline>
</glyph>
<glyph name="five.sups" format="1">
  <advance width="747"/>
  <unicode hex="2075"/>
  <outline>
    <contour>
      <point x="76" y="1031" type="line"/>
      <point x="137" y="944"/>
      <point x="232" y="877"/>
      <point x="373" y="877" type="curve" smooth="yes"/>
      <point x="531" y="877"/>
      <point x="653" y="987"/>
      <point x="653" y="1152" type="curve" smooth="yes"/>
      <point x="653" y="1327"/>
      <point x="536" y="1422"/>
      <point x="392" y="1422" type="curve" smooth="yes"/>
      <point x="338" y="1422"/>
      <point x="294" y="1406"/>
      <point x="254" y="1387" type="curve"/>
      <point x="279" y="1602" type="line"/>
      <point x="612" y="1602" type="line"/>
      <point x="612" y="1700" type="line"/>
      <point x="186" y="1700" type="line"/>
      <point x="148" y="1317" type="line"/>
      <point x="206" y="1276" type="line"/>
      <point x="249" y="1312"/>
      <point x="297" y="1345"/>
      <point x="364" y="1345" type="curve" smooth="yes"/>
      <point x="470" y="1345"/>
      <point x="543" y="1272"/>
      <point x="543" y="1155" type="curve" smooth="yes"/>
      <point x="543" y="1045"/>
      <point x="468" y="966"/>
      <point x="369" y="966" type="curve" smooth="yes"/>
      <point x="271" y="966"/>
      <point x="204" y="1014"/>
      <point x="152" y="1090" type="curve"/>
    </contour>
  </outline>
</glyph>
<glyph name="one.subs" format="1">
  <advance width="747"/>
  <unicode hex="2081"/>
  <outline>
    <contour>
      <point x="355" y="-403" type="line"/>
      <point x="465" y="-403" type="line"/>
      <point x="465" y="396" type="line"/>
      <point x="375" y="396" type="line"/>
      <point x="323" y="356"/>
      <point x="269" y="332"/>
      <point x="184" y="315" type="curve"/>
      <point x="184" y="242" type="line"/>
      <point x="355" y="242" type="line"/>
    </contour>
  </outline>
</glyph>
<glyph name="uni20A6" format="1">
  <advance width="1003"/>
  <unicode hex="20A6"/>
  <outline>
    <contour>
      <point x="711" y="574" type="line" name="hr00"/>
      <point x="587" y="574" type="line"/>
      <point x="543" y="703" type="line"/>
      <point x="708" y="703" type="line"/>
    </contour>
    <contour>
      <point x="734" y="135" type="line"/>
      <point x="726" y="135" type="line"/>
      <point x="613" y="494" type="line"/>
      <point x="715" y="494" type="line"/>
    </contour>
    <contour>
      <point x="295" y="574" type="line"/>
      <point x="293" y="703" type="line"/>
      <point x="426" y="703" type="line"/>
      <point x="472" y="574" type="line"/>
    </contour>
    <contour>
      <point x="289" y="780" type="line"/>
      <point x="269" y="1172" type="line"/>
      <point x="277" y="1172" type="line"/>
      <point x="402" y="780" type="line"/>
    </contour>
    <contour>
      <point x="969" y="703" type="line"/>
      <point x="969" y="780" type="line"/>
      <point x="821" y="780" type="line"/>
      <point x="821" y="1308" type="line"/>
      <point x="708" y="1308" type="line"/>
      <point x="708" y="780" type="line"/>
      <point x="515" y="780" type="line"/>
      <point x="329" y="1308" type="line"/>
      <point x="182" y="1308" type="line"/>
      <point x="182" y="780" type="line"/>
      <point x="27" y="771" type="line"/>
      <point x="27" y="703" type="line"/>
      <point x="182" y="703" type="line"/>
      <point x="182" y="574" type="line"/>
      <point x="27" y="564" type="line"/>
      <point x="27" y="494" type="line"/>
      <point x="182" y="494" type="line"/>
      <point x="182" y="0" type="line"/>
      <point x="295" y="0" type="line"/>
      <point x="295" y="494" type="line"/>
      <point x="500" y="494" type="line"/>
      <point x="674" y="0" type="line"/>
      <point x="821" y="0" type="line"/>
      <point x="821" y="494" type="line"/>
      <point x="969" y="494" type="line"/>
      <point x="969" y="574" type="line"/>
      <point x="821" y="574" type="line"/>
      <point x="821" y="703" type="line"/>
    </contour>
  </outline>
</glyph>
<glyph name="arrowup" format="1">
  <advance width="1269"/>
  <unicode hex="2191"/>
  <outline>
    <contour>
      <point x="630" y="1078" type="line" name="hr00"/>
      <point x="87" y="524" type="line"/>
      <point x="166" y="451" type="line"/>
      <point x="576" y="888" type="line"/>
      <point x="576" y="-50" type="line"/>
      <point x="691" y="-50" type="line"/>
      <point x="691" y="888" type="line"/>
      <point x="1101" y="451" type="line"/>
      <point x="1181" y="524" type="line"/>
      <point x="638" y="1078" type="line"/>
    </contour>
  </outline>
</glyph>
<glyph name="arrowdown" format="1">
  <advance width="1269"/>
  <unicode hex="2193"/>
  <outline>
    <contour>
      <point x="638" y="-50" type="line" name="hr00"/>
      <point x="1181" y="506" type="line"/>
      <point x="1101" y="578" type="line"/>
      <point x="691" y="141" type="line"/>
      <point x="691" y="1078" type="line"/>
      <point x="576" y="1078" type="line"/>
      <point x="576" y="141" type="line"/>
      <point x="166" y="578" type="line"/>
      <point x="87" y="506" type="line"/>
      <point x="630" y="-50" type="line"/>
    </contour>
  </outline>
</glyph>
<glyph name="partialdiff" format="1">
  <advance width="1057"/>
  <unicode hex="2202"/>
  <outline>
    <contour>
      <point x="457" y="90" type="curve" smooth="yes" name="hr00"/>
      <point x="324" y="90"/>
      <point x="210" y="203"/>
      <point x="210" y="375" type="curve" smooth="yes"/>
      <point x="210" y="561"/>
      <point x="309" y="713"/>
      <point x="532" y="713" type="curve" smooth="yes"/>
      <point x="627" y="713"/>
      <point x="729" y="670"/>
      <point x="828" y="552" type="curve"/>
      <point x="786" y="269"/>
      <point x="652" y="90"/>
    </contour>
    <contour>
      <point x="306" y="1156" type="line"/>
      <point x="370" y="1221"/>
      <point x="453" y="1261"/>
      <point x="540" y="1261" type="curve" smooth="yes"/>
      <point x="720" y="1261"/>
      <point x="841" y="1118"/>
      <point x="841" y="748" type="curve" smooth="yes"/>
      <point x="841" y="723"/>
      <point x="841" y="699"/>
      <point x="839" y="675" type="curve"/>
      <point x="755" y="768"/>
      <point x="638" y="825"/>
      <point x="523" y="825" type="curve" smooth="yes"/>
      <point x="242" y="825"/>
      <point x="79" y="634"/>
      <point x="79" y="366" type="curve" smooth="yes"/>
      <point x="79" y="123"/>
      <point x="252" y="-25"/>
      <point x="444" y="-25" type="curve" smooth="yes"/>
      <point x="762" y="-25"/>
      <point x="975" y="287"/>
      <point x="975" y="746" type="curve" smooth="yes"/>
      <point x="975" y="1179"/>
      <point x="804" y="1376"/>
      <point x="553" y="1376" type="curve" smooth="yes"/>
      <point x="429" y="1376"/>
      <point x="321" y="1326"/>
      <point x="241" y="1242" type="curve"/>
    </contour>
  </outline>
</glyph>
<glyph name="uni2610" format="1">
  <advance width="1632"/>
  <unicode hex="2610"/>
  <outline>
    <contour>
      <point x="231" y="59" type="line"/>
      <point x="231" y="1229" type="line"/>
      <point x="1333" y="1229" type="line"/>
      <point x="1333" y="59" type="line"/>
    </contour>
    <contour>
      <point x="152" y="-20" type="line"/>
      <point x="1378" y="-20" type="line"/>
      <point x="1481" y="97" type="line"/>
      <point x="1481" y="1372" type="line"/>
      <point x="269" y="1372" type="line"/>
      <point x="152" y="1275" type="line"/>
    </contour>
  </outline>
</glyph>
<glyph name="uni2752" format="1">
  <advance width="751"/>
  <unicode hex="2752"/>
  <outline>
    <contour>
      <point x="182" y="327" type="line"/>
      <point x="182" y="657" type="line"/>
      <point x="498" y="657" type="line"/>
      <point x="498" y="327" type="line"/>
    </contour>
    <contour>
      <point x="111" y="260" type="line"/>
      <point x="544" y="260" type="line"/>
      <point x="640" y="375" type="line"/>
      <point x="640" y="800" type="line"/>
      <point x="227" y="800" type="line"/>
      <point x="111" y="704" type="line"/>
    </contour>
  </outline>
</glyph>
<glyph name="a.a" format="1">
  <advance width="1128"/>
  <outline>
    <contour>
      <point x="243" y="493" type="curve" smooth="yes"/>
      <point x="243" y="732"/>
      <point x="377" y="900"/>
      <point x="558" y="900" type="curve" smooth="yes"/>
      <point x="648" y="900"/>
      <point x="722" y="868"/>
      <point x="814" y="785" type="curve"/>
      <point x="814" y="239" type="line"/>
      <point x="723" y="142"/>
      <point x="643" y="92"/>
      <point x="541" y="92" type="curve" smooth="yes"/>
      <point x="347" y="92"/>
      <point x="243" y="244"/>
    </contour>
    <contour>
      <point x="100" y="492" type="curve" smooth="yes"/>
      <point x="100" y="157"/>
      <point x="256" y="-25"/>
      <point x="513" y="-25" type="curve" smooth="yes"/>
      <point x="640" y="-25"/>
      <point x="740" y="43"/>
      <point x="819" y="121" type="curve"/>
      <point x="825" y="121" type="line"/>
      <point x="837" y="0" type="line"/>
      <point x="951" y="0" type="line"/>
      <point x="951" y="990" type="line"/>
      <point x="837" y="990" type="line"/>
      <point x="826" y="895" type="line"/>
      <point x="822" y="895" type="line"/>
      <point x="731" y="973"/>
      <point x="656" y="1016"/>
      <point x="539" y="1016" type="curve" smooth="yes"/>
      <point x="301" y="1016"/>
      <point x="100" y="817"/>
    </contour>
    <contour>
      <point x="796" y="0" type="move" name="mark0"/>
    </contour>
  </outline>
</glyph>
<glyph name="abreve.a" format="1">
  <advance width="1128"/>
  <outline>
    <contour>
      <point x="243" y="494" type="curve" smooth="yes"/>
      <point x="243" y="730"/>
      <point x="379" y="899"/>
      <point x="554" y="899" type="curve" smooth="yes"/>
      <point x="641" y="899"/>
      <point x="722" y="868"/>
      <point x="814" y="785" type="curve"/>
      <point x="814" y="239" type="line"/>
      <point x="723" y="142"/>
      <point x="636" y="92"/>
      <point x="537" y="92" type="curve" smooth="yes"/>
      <point x="349" y="92"/>
      <point x="243" y="247"/>
    </contour>
    <contour>
      <point x="100" y="493" type="curve" smooth="yes"/>
      <point x="100" y="162"/>
      <point x="261" y="-25"/>
      <point x="510" y="-25" type="curve" smooth="yes"/>
      <point x="633" y="-25"/>
      <point x="740" y="43"/>
      <point x="819" y="121" type="curve"/>
      <point x="825" y="121" type="line"/>
      <point x="837" y="0" type="line"/>
      <point x="951" y="0" type="line"/>
      <point x="951" y="990" type="line"/>
      <point x="837" y="990" type="line"/>
      <point x="826" y="895" type="line"/>
      <point x="822" y="895" type="line"/>
      <point x="731" y="973"/>
      <point x="650" y="1015"/>
      <point x="536" y="1015" type="curve" smooth="yes"/>
      <point x="305" y="1015"/>
      <point x="100" y="814"/>
    </contour>
    <contour>
      <point x="571" y="1179" type="curve" smooth="yes"/>
      <point x="743" y="1179"/>
      <point x="812" y="1318"/>
      <point x="824" y="1432" type="curve"/>
      <point x="734" y="1432" type="line"/>
      <point x="723" y="1349"/>
      <point x="672" y="1267"/>
      <point x="571" y="1267" type="curve" smooth="yes"/>
      <point x="469" y="1267"/>
      <point x="419" y="1349"/>
      <point x="407" y="1432" type="curve"/>
      <point x="317" y="1432" type="line"/>
      <point x="329" y="1318"/>
      <point x="398" y="1179"/>
    </contour>
  </outline>
</glyph>
<glyph name="anusvara-deva.001" format="1">
  <advance width="540"/>
  <outline>
    <contour>
      <point x="333" y="1504"/>
      <point x="309" y="1481"/>
      <point x="309" y="1426" type="curve" smooth="yes"/>
      <point x="309" y="1372"/>
      <point x="333" y="1349"/>
      <point x="388" y="1349" type="curve" smooth="yes"/>
      <point x="443" y="1349"/>
      <point x="467" y="1372"/>
      <point x="467" y="1426" type="curve" smooth="yes"/>
      <point x="467" y="1481"/>
      <point x="443" y="1504"/>
      <point x="388" y="1504" type="curve" smooth="yes"/>
    </contour>
    <contour>
      <point x="255" y="1168" type="move" name="_top"/>
    </contour>
  </outline>
</glyph>
<glyph name="b_j_ya-deva" format="1">
  <advance width="2684"/>
  <outline>
    <contour>
      <point x="348" y="934"/>
      <point x="98" y="909"/>
      <point x="98" y="566" type="curve" smooth="yes"/>
      <point x="98" y="358"/>
      <point x="200" y="210"/>
      <point x="430" y="210" type="curve" smooth="yes"/>
      <point x="557" y="210"/>
      <point x="713" y="257"/>
      <point x="829" y="431" type="curve"/>
      <point x="808" y="569" type="line"/>
      <point x="710" y="408"/>
      <point x="600" y="313"/>
      <point x="442" y="313" type="curve" smooth="yes"/>
      <point x="294" y="313"/>
      <point x="223" y="390"/>
      <point x="223" y="563" type="curve" smooth="yes"/>
      <point x="223" y="815"/>
      <point x="371" y="830"/>
      <point x="486" y="830" type="curve" smooth="yes"/>
      <point x="544" y="830"/>
      <point x="580" y="826"/>
      <point x="618" y="812" type="curve"/>
      <point x="647" y="907" type="line"/>
      <point x="594" y="927"/>
      <point x="553" y="934"/>
      <point x="488" y="934" type="curve" smooth="yes"/>
    </contour>
    <contour>
      <point x="231" y="798" type="line"/>
      <point x="706" y="316" type="line"/>
      <point x="769" y="384" type="line"/>
      <point x="295" y="867" type="line"/>
    </contour>
    <contour>
      <point x="1164" y="811" type="line"/>
      <point x="1291" y="747"/>
      <point x="1373" y="664"/>
      <point x="1373" y="525" type="curve" smooth="yes"/>
      <point x="1373" y="407"/>
      <point x="1304" y="329"/>
      <point x="1168" y="328" type="curve" smooth="yes"/>
      <point x="906" y="327"/>
      <point x="838" y="637"/>
      <point x="813" y="877" type="curve"/>
      <point x="707" y="863" type="line"/>
      <point x="735" y="482"/>
      <point x="862" y="210"/>
      <point x="1171" y="210" type="curve" smooth="yes"/>
      <point x="1376" y="210"/>
      <point x="1499" y="330"/>
      <point x="1499" y="510" type="curve" smooth="yes"/>
      <point x="1499" y="666"/>
      <point x="1421" y="759"/>
      <point x="1284" y="832" type="curve"/>
      <point x="1204" y="897" type="line"/>
    </contour>
    <contour>
      <point x="1204" y="897" type="line"/>
      <point x="1258" y="791" type="line"/>
      <point x="1901" y="791" type="line"/>
      <point x="1901" y="897" type="line"/>
    </contour>
    <contour>
      <point x="-12" y="1247" type="line"/>
      <point x="-12" y="1143" type="line"/>
      <point x="1601" y="1143" type="line"/>
      <point x="1601" y="1247" type="line"/>
    </contour>
    <component base="ya-deva" xOffset="1544"/>
  </outline>
</glyph>
<glyph name="b_ja-deva" format="1">
  <advance width="2043"/>
  <outline>
    <contour>
      <point x="326" y="934"/>
      <point x="76" y="909"/>
      <point x="76" y="566" type="curve" smooth="yes"/>
      <point x="76" y="358"/>
      <point x="178" y="210"/>
      <point x="408" y="210" type="curve" smooth="yes"/>
      <point x="535" y="210"/>
      <point x="691" y="257"/>
      <point x="807" y="431" type="curve"/>
      <point x="786" y="569" type="line"/>
      <point x="688" y="408"/>
      <point x="578" y="313"/>
      <point x="420" y="313" type="curve" smooth="yes"/>
      <point x="272" y="313"/>
      <point x="201" y="390"/>
      <point x="201" y="563" type="curve" smooth="yes"/>
      <point x="201" y="815"/>
      <point x="349" y="830"/>
      <point x="464" y="830" type="curve" smooth="yes"/>
      <point x="522" y="830"/>
      <point x="558" y="826"/>
      <point x="596" y="812" type="curve"/>
      <point x="625" y="907" type="line"/>
      <point x="572" y="927"/>
      <point x="531" y="934"/>
      <point x="466" y="934" type="curve" smooth="yes"/>
    </contour>
    <contour>
      <point x="-35" y="1247" type="line"/>
      <point x="-35" y="1143" type="line"/>
      <point x="674" y="1143" type="line"/>
      <point x="674" y="1247" type="line"/>
    </contour>
    <contour>
      <point x="209" y="798" type="line"/>
      <point x="684" y="316" type="line"/>
      <point x="747" y="384" type="line"/>
      <point x="273" y="867" type="line"/>
    </contour>
    <component base="ja-deva" xOffset="625"/>
  </outline>
</glyph>
<glyph name="bh-deva" format="1">
  <advance width="634"/>
  <outline>
    <contour>
      <point x="158" y="1269"/>
      <point x="108" y="1258"/>
      <point x="71" y="1243" type="curve"/>
      <point x="92" y="1141" type="line"/>
      <point x="117" y="1148"/>
      <point x="157" y="1158"/>
      <point x="200" y="1158" type="curve" smooth="yes"/>
      <point x="271" y="1158"/>
      <point x="304" y="1132"/>
      <point x="304" y="1041" type="curve" smooth="yes"/>
      <point x="304" y="551" type="line"/>
      <point x="430" y="551" type="line"/>
      <point x="430" y="1037" type="line" smooth="yes"/>
      <point x="430" y="1144"/>
      <point x="412" y="1269"/>
      <point x="218" y="1269" type="curve" smooth="yes"/>
    </contour>
    <contour>
      <point x="319" y="609" type="line"/>
      <point x="151" y="589" type="line"/>
      <point x="151" y="498" type="line"/>
      <point x="321" y="309" type="line"/>
      <point x="411" y="312"/>
      <point x="429" y="361"/>
      <point x="429" y="419" type="curve" smooth="yes"/>
      <point x="429" y="609" type="line"/>
    </contour>
    <contour>
      <point x="310" y="601" type="line"/>
      <point x="310" y="489" type="line"/>
      <point x="837" y="489" type="line"/>
      <point x="837" y="601" type="line"/>
    </contour>
  </outline>
</glyph>
<glyph name="c-deva" format="1">
  <advance width="739"/>
  <outline>
    <contour>
      <point x="413" y="828" type="line"/>
      <point x="274" y="798"/>
      <point x="181" y="694"/>
      <point x="181" y="527" type="curve"/>
      <point x="181" y="336"/>
      <point x="316" y="215"/>
      <point x="526" y="215" type="curve" smooth="yes"/>
      <point x="704" y="215"/>
      <point x="850" y="305"/>
      <point x="944" y="440" type="curve"/>
      <point x="934" y="591" type="line"/>
      <point x="833" y="422"/>
      <point x="694" y="325"/>
      <point x="531" y="325" type="curve" smooth="yes"/>
      <point x="394" y="325"/>
      <point x="312" y="396"/>
      <point x="312" y="537" type="curve"/>
      <point x="312" y="704"/>
      <point x="425" y="791"/>
      <point x="613" y="791" type="curve"/>
      <point x="583" y="852" type="line"/>
    </contour>
    <contour>
      <point x="29" y="897" type="line"/>
      <point x="29" y="790" type="line"/>
      <point x="680" y="791" type="line"/>
      <point x="680" y="899" type="line"/>
    </contour>
    <contour>
      <point x="-12" y="1247" type="line"/>
      <point x="-12" y="1143" type="line"/>
      <point x="759" y="1143" type="line"/>
      <point x="759" y="1247" type="line"/>
    </contour>
  </outline>
</glyph>
<glyph name="comma.numr" format="1">
  <advance width="347"/>
  <outline>
    <contour>
      <point x="98" y="318" type="line" name="hr00"/>
      <point x="208" y="361"/>
      <point x="279" y="459"/>
      <point x="279" y="571" type="curve" smooth="yes"/>
      <point x="279" y="662"/>
      <point x="240" y="710"/>
      <point x="178" y="710" type="curve" smooth="yes"/>
      <point x="133" y="710"/>
      <point x="91" y="677"/>
      <point x="91" y="623" type="curve" smooth="yes"/>
      <point x="91" y="571"/>
      <point x="133" y="546"/>
      <point x="175" y="546" type="curve" smooth="yes"/>
      <point x="181" y="546"/>
      <point x="187" y="546"/>
      <point x="193" y="548" type="curve"/>
      <point x="192" y="469"/>
      <point x="143" y="414"/>
      <point x="69" y="384" type="curve"/>
    </contour>
  </outline>
</glyph>
<glyph name="d_na-deva" format="1">
  <advance width="1025"/>
  <outline>
    <contour>
      <point x="510" y="-35" type="line"/>
      <point x="507" y="-98" type="line"/>
      <point x="860" y="218" type="line"/>
      <point x="805" y="284" type="line"/>
      <point x="294" y="-129" type="line"/>
      <point x="372" y="-240" type="line"/>
      <point x="607" y="-298" type="line"/>
      <point x="671" y="-241"/>
      <point x="644" y="-183"/>
      <point x="593" y="-126" type="curve" smooth="yes"/>
    </contour>
    <contour>
      <point x="657" y="1178" type="line"/>
      <point x="657" y="865" type="line"/>
      <point x="716" y="885" type="line"/>
      <point x="658" y="896"/>
      <point x="602" y="901"/>
      <point x="552" y="901" type="curve" smooth="yes"/>
      <point x="209" y="901"/>
      <point x="88" y="749"/>
      <point x="88" y="506" type="curve" smooth="yes"/>
      <point x="88" y="260"/>
      <point x="243" y="103"/>
      <point x="532" y="103" type="curve" smooth="yes"/>
      <point x="649" y="103"/>
      <point x="751" y="137"/>
      <point x="826" y="188" type="curve" smooth="yes"/>
      <point x="892" y="231"/>
      <point x="921" y="272"/>
      <point x="921" y="324" type="curve" smooth="yes"/>
      <point x="921" y="399"/>
      <point x="856" y="465"/>
      <point x="752" y="497" type="curve"/>
      <point x="668" y="431" type="line"/>
      <point x="767" y="239" type="line"/>
      <point x="787" y="281" type="line"/>
      <point x="692" y="222"/>
      <point x="612" y="206"/>
      <point x="528" y="206" type="curve" smooth="yes"/>
      <point x="346" y="206"/>
      <point x="221" y="281"/>
      <point x="221" y="497" type="curve" smooth="yes"/>
      <point x="221" y="706"/>
      <point x="320" y="788"/>
      <point x="560" y="788" type="curve" smooth="yes"/>
      <point x="661" y="788"/>
      <point x="757" y="781"/>
      <point x="784" y="780" type="curve"/>
      <point x="784" y="1178" type="line"/>
    </contour>
    <contour>
      <point x="778" y="212" type="line"/>
      <point x="946" y="-107" type="line"/>
      <point x="1048" y="-44" type="line"/>
      <point x="854" y="247" type="line"/>
    </contour>
    <contour>
      <point x="-12" y="1247" type="line"/>
      <point x="-12" y="1143" type="line"/>
      <point x="1038" y="1143" type="line"/>
      <point x="1038" y="1247" type="line"/>
    </contour>
    <contour>
      <point x="85" y="44" type="move" name="nukta"/>
    </contour>
    <contour>
      <point x="720" y="1168" type="move" name="top"/>
    </contour>
    <contour>
      <point x="514" y="1168" type="move" name="topcandra"/>
    </contour>
    <contour>
      <point x="572" y="103" type="move" name="bottom"/>
    </contour>
  </outline>
</glyph>
<glyph name="dd_dda-deva" format="1">
  <advance width="1072"/>
  <outline>
    <contour>
      <point x="425" y="986" type="line" smooth="yes"/>
      <point x="260" y="986"/>
      <point x="186" y="935"/>
      <point x="186" y="822" type="curve" smooth="yes"/>
      <point x="186" y="722"/>
      <point x="243" y="604"/>
      <point x="307" y="553" type="curve"/>
      <point x="332" y="537"/>
      <point x="345" y="536"/>
      <point x="361" y="538" type="curve" smooth="yes"/>
      <point x="400" y="543"/>
      <point x="566" y="569"/>
      <point x="682" y="569" type="curve" smooth="yes"/>
      <point x="811" y="569"/>
      <point x="859" y="533"/>
      <point x="859" y="452" type="curve" smooth="yes"/>
      <point x="859" y="340"/>
      <point x="762" y="294"/>
      <point x="598" y="294" type="curve" smooth="yes"/>
      <point x="390" y="294"/>
      <point x="277" y="369"/>
      <point x="171" y="476" type="curve"/>
      <point x="107" y="415" type="line"/>
      <point x="245" y="252"/>
      <point x="407" y="198"/>
      <point x="590" y="191" type="curve" smooth="yes"/>
      <point x="791" y="191"/>
      <point x="973" y="256"/>
      <point x="973" y="464" type="curve" smooth="yes"/>
      <point x="973" y="651"/>
      <point x="822" y="679"/>
      <point x="681" y="678" type="curve" smooth="yes"/>
      <point x="565" y="678"/>
      <point x="408" y="658"/>
      <point x="336" y="641" type="curve"/>
      <point x="359" y="630" type="line"/>
      <point x="337" y="650"/>
      <point x="298" y="716"/>
      <point x="298" y="787" type="curve" smooth="yes"/>
      <point x="298" y="856"/>
      <point x="331" y="882"/>
      <point x="451" y="882" type="curve" smooth="yes"/>
      <point x="808" y="882" type="line"/>
      <point x="795" y="986" type="line"/>
    </contour>
    <contour>
      <point x="281" y="277"/>
      <point x="189" y="214"/>
      <point x="189" y="109" type="curve" smooth="yes"/>
      <point x="192" y="21"/>
      <point x="244" y="-96"/>
      <point x="309" y="-143" type="curve" smooth="yes"/>
      <point x="334" y="-162"/>
      <point x="347" y="-160"/>
      <point x="363" y="-158" type="curve" smooth="yes"/>
      <point x="402" y="-154"/>
      <point x="568" y="-127"/>
      <point x="684" y="-127" type="curve" smooth="yes"/>
      <point x="813" y="-127"/>
      <point x="861" y="-164"/>
      <point x="861" y="-244" type="curve" smooth="yes"/>
      <point x="861" y="-353"/>
      <point x="764" y="-402"/>
      <point x="600" y="-402" type="curve" smooth="yes"/>
      <point x="379" y="-402"/>
      <point x="280" y="-324"/>
      <point x="175" y="-217" type="curve"/>
      <point x="109" y="-281" type="line"/>
      <point x="237" y="-431"/>
      <point x="397" y="-509"/>
      <point x="592" y="-509" type="curve" smooth="yes"/>
      <point x="793" y="-509"/>
      <point x="975" y="-437"/>
      <point x="975" y="-233" type="curve" smooth="yes"/>
      <point x="975" y="-45"/>
      <point x="824" y="-18"/>
      <point x="683" y="-18" type="curve" smooth="yes"/>
      <point x="567" y="-19"/>
      <point x="410" y="-39"/>
      <point x="338" y="-55" type="curve"/>
      <point x="365" y="-67" type="line"/>
      <point x="337" y="-47"/>
      <point x="300" y="19"/>
      <point x="300" y="90" type="curve" smooth="yes"/>
      <point x="300" y="151"/>
      <point x="346" y="192"/>
      <point x="475" y="192" type="curve" smooth="yes"/>
      <point x="589" y="191" type="line"/>
      <point x="447" y="267" type="line"/>
    </contour>
    <contour>
      <point x="-12" y="1247" type="line"/>
      <point x="-12" y="1143" type="line"/>
      <point x="1085" y="1143" type="line"/>
      <point x="1085" y="1247" type="line"/>
    </contour>
    <contour>
      <point x="736" y="1207" type="line"/>
      <point x="736" y="882" type="line"/>
      <point x="861" y="882" type="line"/>
      <point x="861" y="1207" type="line"/>
    </contour>
    <contour>
      <point x="798" y="1168" type="move" name="top"/>
    </contour>
    <contour>
      <point x="664" y="-468" type="move" name="bottom"/>
    </contour>
    <contour>
      <point x="574" y="1168" type="move" name="topcandra"/>
    </contour>
  </outline>
</glyph>
<glyph name="dd_tta-deva" format="1">
  <advance width="1033"/>
  <outline>
    <contour>
      <point x="791" y="188"/>
      <point x="973" y="256"/>
      <point x="973" y="464" type="curve" smooth="yes"/>
      <point x="973" y="651"/>
      <point x="822" y="679"/>
      <point x="681" y="678" type="curve" smooth="yes"/>
      <point x="565" y="678"/>
      <point x="408" y="658"/>
      <point x="336" y="641" type="curve"/>
      <point x="359" y="630" type="line"/>
      <point x="337" y="650"/>
      <point x="298" y="716"/>
      <point x="298" y="787" type="curve" smooth="yes"/>
      <point x="298" y="856"/>
      <point x="331" y="882"/>
      <point x="451" y="882" type="curve" smooth="yes"/>
      <point x="808" y="882" type="line"/>
      <point x="795" y="986" type="line"/>
      <point x="425" y="986" type="line" smooth="yes"/>
      <point x="260" y="986"/>
      <point x="186" y="935"/>
      <point x="186" y="822" type="curve" smooth="yes"/>
      <point x="186" y="722"/>
      <point x="243" y="604"/>
      <point x="307" y="553" type="curve"/>
      <point x="332" y="537"/>
      <point x="345" y="536"/>
      <point x="361" y="538" type="curve" smooth="yes"/>
      <point x="400" y="543"/>
      <point x="566" y="569"/>
      <point x="682" y="569" type="curve" smooth="yes"/>
      <point x="811" y="569"/>
      <point x="859" y="533"/>
      <point x="859" y="452" type="curve" smooth="yes"/>
      <point x="859" y="340"/>
      <point x="762" y="294"/>
      <point x="598" y="294" type="curve" smooth="yes"/>
      <point x="390" y="294"/>
      <point x="277" y="369"/>
      <point x="171" y="476" type="curve"/>
      <point x="107" y="415" type="line"/>
      <point x="245" y="252"/>
      <point x="407" y="195"/>
      <point x="590" y="188" type="curve" smooth="yes"/>
    </contour>
    <contour>
      <point x="715" y="-391"/>
      <point x="838" y="-358"/>
      <point x="934" y="-307" type="curve"/>
      <point x="893" y="-209" type="line"/>
      <point x="797" y="-255"/>
      <point x="687" y="-284"/>
      <point x="589" y="-284" type="curve" smooth="yes"/>
      <point x="352" y="-284"/>
      <point x="277" y="-188"/>
      <point x="277" y="-45" type="curve" smooth="yes"/>
      <point x="277" y="147"/>
      <point x="433" y="189"/>
      <point x="605" y="189" type="curve"/>
      <point x="714" y="273" type="line"/>
      <point x="668" y="282"/>
      <point x="614" y="288"/>
      <point x="556" y="288" type="curve" smooth="yes"/>
      <point x="298" y="288"/>
      <point x="152" y="175"/>
      <point x="152" y="-40" type="curve" smooth="yes"/>
      <point x="152" y="-283"/>
      <point x="343" y="-391"/>
      <point x="584" y="-391" type="curve" smooth="yes"/>
    </contour>
    <contour>
      <point x="1085" y="1143" type="line"/>
      <point x="1085" y="1247" type="line"/>
      <point x="-12" y="1247" type="line"/>
      <point x="-12" y="1143" type="line"/>
    </contour>
    <contour>
      <point x="861" y="882" type="line"/>
      <point x="861" y="1207" type="line"/>
      <point x="736" y="1207" type="line"/>
      <point x="736" y="882" type="line"/>
    </contour>
  </outline>
</glyph>
<glyph name="dieresis.cap" format="1">
  <advance width="0"/>
  <outline>
    <contour>
      <point x="-170" y="1473" type="curve" smooth="yes" name="hr00"/>
      <point x="-119" y="1473"/>
      <point x="-80" y="1509"/>
      <point x="-80" y="1563" type="curve" smooth="yes"/>
      <point x="-80" y="1617"/>
      <point x="-119" y="1652"/>
      <point x="-170" y="1652" type="curve" smooth="yes"/>
      <point x="-223" y="1652"/>
      <point x="-260" y="1617"/>
      <point x="-260" y="1563" type="curve" smooth="yes"/>
      <point x="-260" y="1509"/>
      <point x="-223" y="1473"/>
    </contour>
    <contour>
      <point x="170" y="1473" type="curve" smooth="yes"/>
      <point x="223" y="1473"/>
      <point x="260" y="1509"/>
      <point x="260" y="1563" type="curve" smooth="yes"/>
      <point x="260" y="1617"/>
      <point x="223" y="1652"/>
      <point x="170" y="1652" type="curve" smooth="yes"/>
      <point x="119" y="1652"/>
      <point x="80" y="1617"/>
      <point x="80" y="1563" type="curve" smooth="yes"/>
      <point x="80" y="1509"/>
      <point x="119" y="1473"/>
    </contour>
    <contour>
      <point x="0" y="1050" type="move" name="_top"/>
    </contour>
  </outline>
</glyph>
<glyph name="g.supa" format="1">
  <advance width="764"/>
  <outline>
    <contour>
      <point x="159" y="381" type="curve"/>
      <point x="117" y="305" type="line"/>
      <point x="187" y="259"/>
      <point x="272" y="230"/>
      <point x="353" y="230" type="curve" smooth="yes"/>
      <point x="540" y="230"/>
      <point x="650" y="337"/>
      <point x="650" y="503" type="curve" smooth="yes"/>
      <point x="650" y="1189" type="line"/>
      <point x="566" y="1189" type="line"/>
      <point x="555" y="1125" type="line"/>
      <point x="549" y="1125" type="line"/>
      <point x="494" y="1177"/>
      <point x="433" y="1205"/>
      <point x="362" y="1205" type="curve" smooth="yes"/>
      <point x="210" y="1205"/>
      <point x="72" y="1076"/>
      <point x="72" y="871" type="curve" smooth="yes"/>
      <point x="72" y="674"/>
      <point x="180" y="546"/>
      <point x="354" y="546" type="curve" smooth="yes"/>
      <point x="430" y="546"/>
      <point x="486" y="583"/>
      <point x="549" y="635" type="curve"/>
      <point x="545" y="542" type="line"/>
      <point x="545" y="510" type="line"/>
      <point x="545" y="398"/>
      <point x="477" y="320"/>
      <point x="355" y="320" type="curve" smooth="yes"/>
      <point x="290" y="320"/>
      <point x="220" y="339"/>
    </contour>
    <contour>
      <point x="375" y="637" type="curve" smooth="yes"/>
      <point x="244" y="637"/>
      <point x="183" y="733"/>
      <point x="183" y="874" type="curve" smooth="yes"/>
      <point x="183" y="1015"/>
      <point x="269" y="1113"/>
      <point x="374" y="1113" type="curve" smooth="yes"/>
      <point x="426" y="1113"/>
      <point x="487" y="1093"/>
      <point x="545" y="1042" type="curve"/>
      <point x="545" y="726" type="line"/>
      <point x="482" y="667"/>
      <point x="431" y="637"/>
    </contour>
  </outline>
</glyph>
<glyph name="g_r_ya-deva" format="1">
  <advance width="1816"/>
  <outline>
    <contour>
      <point x="879" y="455" type="line"/>
      <point x="836" y="546" type="line"/>
      <point x="201" y="74" type="line"/>
      <point x="279" y="-18" type="line"/>
    </contour>
    <contour>
      <point x="273" y="685" type="line"/>
      <point x="99" y="665" type="line"/>
      <point x="99" y="576" type="line"/>
      <point x="269" y="386" type="line"/>
      <point x="358" y="389"/>
      <point x="377" y="437"/>
      <point x="377" y="495" type="curve" smooth="yes"/>
      <point x="377" y="685" type="line"/>
    </contour>
    <contour>
      <point x="252" y="1191" type="line"/>
      <point x="252" y="520" type="line"/>
      <point x="378" y="622" type="line"/>
      <point x="378" y="1191" type="line"/>
    </contour>
    <contour>
      <point x="-12" y="1247" type="line"/>
      <point x="-12" y="1143" type="line"/>
      <point x="1016" y="1143" type="line"/>
      <point x="1016" y="1247" type="line"/>
    </contour>
    <component base="ya-deva" xOffset="677"/>
    <contour>
      <point x="503" y="127" type="move" name="nukta"/>
    </contour>
    <contour>
      <point x="1044" y="1168" type="move" name="top"/>
    </contour>
    <contour>
      <point x="791" y="1168" type="move" name="topcandra"/>
    </contour>
    <contour>
      <point x="1043" y="28" type="move" name="bottom"/>
    </contour>
  </outline>
</glyph>
<glyph name="ha_uuMatra-deva" format="1">
  <advance width="988"/>
  <outline>
    <contour>
      <point x="341" y="549"/>
      <point x="98" y="484"/>
      <point x="98" y="220" type="curve" smooth="yes"/>
      <point x="98" y="62"/>
      <point x="207" y="-113"/>
      <point x="502" y="-239" type="curve"/>
      <point x="496" y="-216" type="line"/>
      <point x="368" y="-241"/>
      <point x="295" y="-329"/>
      <point x="295" y="-444" type="curve" smooth="yes"/>
      <point x="295" y="-584"/>
      <point x="393" y="-709"/>
      <point x="595" y="-709" type="curve" smooth="yes"/>
      <point x="625" y="-709"/>
      <point x="661" y="-705"/>
      <point x="698" y="-695" type="curve"/>
      <point x="683" y="-594" type="line"/>
      <point x="652" y="-600"/>
      <point x="630" y="-601"/>
      <point x="608" y="-601" type="curve" smooth="yes"/>
      <point x="505" y="-601"/>
      <point x="417" y="-567"/>
      <point x="417" y="-454" type="curve" smooth="yes"/>
      <point x="417" y="-356"/>
      <point x="477" y="-303"/>
      <point x="589" y="-303" type="curve" smooth="yes"/>
      <point x="715" y="-303"/>
      <point x="842" y="-359"/>
      <point x="1022" y="-661" type="curve"/>
      <point x="1099" y="-597" type="line"/>
      <point x="989" y="-401"/>
      <point x="884" y="-282"/>
      <point x="741" y="-223" type="curve" smooth="yes"/>
      <point x="625" y="-176"/>
      <point x="227" y="-77"/>
      <point x="224" y="208" type="curve" smooth="yes"/>
      <point x="224" y="359"/>
      <point x="328" y="436"/>
      <point x="534" y="436" type="curve" smooth="yes"/>
      <point x="692" y="436"/>
      <point x="779" y="390"/>
      <point x="779" y="290" type="curve" smooth="yes"/>
      <point x="779" y="205"/>
      <point x="706" y="158"/>
      <point x="614" y="141" type="curve"/>
      <point x="646" y="41" type="line"/>
      <point x="789" y="57"/>
      <point x="892" y="155"/>
      <point x="892" y="288" type="curve" smooth="yes"/>
      <point x="892" y="468"/>
      <point x="750" y="549"/>
      <point x="535" y="549" type="curve" smooth="yes"/>
    </contour>
    <contour>
      <point x="689" y="1180" type="line"/>
      <point x="689" y="921" type="line"/>
      <point x="374" y="921" type="line" smooth="yes"/>
      <point x="222" y="921"/>
      <point x="127" y="864"/>
      <point x="125" y="747" type="curve" smooth="yes"/>
      <point x="124" y="651"/>
      <point x="170" y="558"/>
      <point x="254" y="451" type="curve"/>
      <point x="339" y="481" type="line"/>
      <point x="287" y="566"/>
      <point x="248" y="648"/>
      <point x="251" y="720" type="curve" smooth="yes"/>
      <point x="254" y="784"/>
      <point x="303" y="810"/>
      <point x="400" y="810" type="curve" smooth="yes"/>
      <point x="816" y="810" type="line"/>
      <point x="816" y="1180" type="line"/>
    </contour>
    <contour>
      <point x="-12" y="1247" type="line"/>
      <point x="-12" y="1143" type="line"/>
      <point x="1001" y="1143" type="line"/>
      <point x="1001" y="1247" type="line"/>
    </contour>
    <contour>
      <point x="752" y="1168" type="move" name="top"/>
    </contour>
    <contour>
      <point x="744" y="-637" type="move" name="bottom"/>
    </contour>
    <contour>
      <point x="516" y="1167" type="move" name="topcandra"/>
    </contour>
  </outline>
</glyph>
<glyph name="iiMatra_reph_anusvara-deva" format="1">
  <advance width="568"/>
  <outline>
    <component base="iiMatra-deva"/>
    <component base="reph_anusvara-deva" xOffset="41"/>
    <contour>
      <point x="440" y="1555" type="move" name="topcandra"/>
    </contour>
  </outline>
</glyph>
<glyph name="ja_nya_ra-deva" format="1">
  <advance width="1543"/>
  <outline>
    <contour>
      <point x="345" y="921" type="line" smooth="yes"/>
      <point x="186" y="921"/>
      <point x="100" y="850"/>
      <point x="100" y="720" type="curve" smooth="yes"/>
      <point x="100" y="615"/>
      <point x="148" y="490"/>
      <point x="205" y="436" type="curve" smooth="yes"/>
      <point x="224" y="419"/>
      <point x="250" y="401"/>
      <point x="288" y="407" type="curve" smooth="yes"/>
      <point x="342" y="415"/>
      <point x="516" y="437"/>
      <point x="609" y="437" type="curve" smooth="yes"/>
      <point x="746" y="437"/>
      <point x="794" y="382"/>
      <point x="791" y="282" type="curve" smooth="yes"/>
      <point x="786" y="168"/>
      <point x="698" y="92"/>
      <point x="507" y="92" type="curve" smooth="yes"/>
      <point x="406" y="92"/>
      <point x="316" y="108"/>
      <point x="230" y="154" type="curve"/>
      <point x="297" y="97" type="line"/>
      <point x="207" y="280" type="line"/>
      <point x="87" y="247" type="line"/>
      <point x="84" y="228"/>
      <point x="82" y="208"/>
      <point x="82" y="193" type="curve" smooth="yes"/>
      <point x="82" y="83"/>
      <point x="176" y="36"/>
      <point x="284" y="2" type="curve"/>
      <point x="283" y="29" type="line"/>
      <point x="350" y="-5"/>
      <point x="432" y="-19"/>
      <point x="515" y="-19" type="curve"/>
      <point x="726" y="-19"/>
      <point x="910" y="80"/>
      <point x="910" y="301" type="curve" smooth="yes"/>
      <point x="910" y="510"/>
      <point x="767" y="553"/>
      <point x="619" y="552" type="curve" smooth="yes"/>
      <point x="501" y="552"/>
      <point x="313" y="531"/>
      <point x="250" y="514" type="curve"/>
      <point x="281" y="498" type="line"/>
      <point x="238" y="548"/>
      <point x="217" y="627"/>
      <point x="217" y="686" type="curve" smooth="yes"/>
      <point x="217" y="762"/>
      <point x="245" y="809"/>
      <point x="378" y="809" type="curve" smooth="yes"/>
      <point x="1296" y="809" type="line"/>
      <point x="1282" y="921" type="line"/>
    </contour>
    <contour>
      <point x="204" y="86" type="line"/>
      <point x="431" y="-319" type="line"/>
      <point x="535" y="-257" type="line"/>
      <point x="278" y="102" type="line"/>
    </contour>
    <contour>
      <point x="756" y="-88" type="line"/>
      <point x="834" y="-178" type="line"/>
      <point x="1306" y="197" type="line"/>
      <point x="1257" y="283" type="line"/>
    </contour>
    <contour>
      <point x="1203" y="1193" type="line"/>
      <point x="1203" y="-122" type="line"/>
      <point x="1330" y="-122" type="line"/>
      <point x="1330" y="1193" type="line"/>
    </contour>
    <contour>
      <point x="-20" y="1247" type="line"/>
      <point x="-20" y="1143" type="line"/>
      <point x="1563" y="1143" type="line"/>
      <point x="1563" y="1247" type="line"/>
    </contour>
    <contour>
      <point x="1266" y="1168" type="move" name="top"/>
    </contour>
    <contour>
      <point x="1266" y="-12" type="move" name="bottom"/>
    </contour>
    <contour>
      <point x="784" y="1168" type="move" name="topcandra"/>
    </contour>
  </outline>
</glyph>
<glyph name="k-deva" format="1">
  <advance width="1168"/>
  <outline>
    <contour>
      <point x="208" y="915"/>
      <point x="79" y="797"/>
      <point x="79" y="568" type="curve" smooth="yes"/>
      <point x="79" y="372"/>
      <point x="192" y="223"/>
      <point x="410" y="223" type="curve" smooth="yes"/>
      <point x="557" y="223"/>
      <point x="695" y="288"/>
      <point x="778" y="392" type="curve"/>
      <point x="756" y="513" type="line"/>
      <point x="683" y="406"/>
      <point x="559" y="332"/>
      <point x="418" y="332" type="curve" smooth="yes"/>
      <point x="283" y="332"/>
      <point x="209" y="405"/>
      <point x="209" y="563" type="curve" smooth="yes"/>
      <point x="209" y="728"/>
      <point x="299" y="798"/>
      <point x="440" y="803" type="curve" smooth="yes"/>
      <point x="542" y="808"/>
      <point x="647" y="787"/>
      <point x="769" y="734" type="curve"/>
      <point x="769" y="821" type="line"/>
      <point x="671" y="883"/>
      <point x="552" y="915"/>
      <point x="440" y="915" type="curve" smooth="yes"/>
    </contour>
    <contour>
      <point x="722" y="1196" type="line"/>
      <point x="722" y="0" type="line"/>
      <point x="848" y="0" type="line"/>
      <point x="848" y="1196" type="line"/>
    </contour>
    <contour>
      <point x="-12" y="1247" type="line"/>
      <point x="-12" y="1143" type="line"/>
      <point x="1189" y="1143" type="line"/>
      <point x="1189" y="1247" type="line"/>
    </contour>
    <contour>
      <point x="1371" y="660" type="line"/>
      <point x="1355" y="781"/>
      <point x="1262" y="861"/>
      <point x="1132" y="861" type="curve" smooth="yes"/>
      <point x="1019" y="861"/>
      <point x="915" y="805"/>
      <point x="815" y="683" type="curve"/>
      <point x="815" y="506" type="line"/>
      <point x="931" y="670"/>
      <point x="1027" y="747"/>
      <point x="1128" y="747" type="curve" smooth="yes"/>
      <point x="1230" y="747"/>
      <point x="1284" y="699"/>
      <point x="1315" y="571" type="curve"/>
    </contour>
    <contour>
      <point x="347" y="28" type="move" name="nukta"/>
    </contour>
    <contour>
      <point x="785" y="1168" type="move" name="top"/>
    </contour>
    <contour>
      <point x="784" y="1168" type="move" name="topcandra"/>
    </contour>
    <contour>
      <point x="785" y="28" type="move" name="bottom"/>
    </contour>
  </outline>
</glyph>
<glyph name="k_t_ta-deva" format="1">
  <advance width="2873"/>
  <outline>
    <contour>
      <point x="1347" y="831"/>
      <point x="1250" y="742"/>
      <point x="1250" y="573" type="curve" smooth="yes"/>
      <point x="1250" y="366"/>
      <point x="1397" y="130"/>
      <point x="1521" y="-30" type="curve"/>
      <point x="1622" y="39" type="line"/>
      <point x="1469" y="250"/>
      <point x="1380" y="412"/>
      <point x="1380" y="555" type="curve" smooth="yes"/>
      <point x="1380" y="670"/>
      <point x="1431" y="714"/>
      <point x="1598" y="714" type="curve" smooth="yes"/>
      <point x="1756" y="714"/>
      <point x="1828" y="685"/>
      <point x="1958" y="614" type="curve"/>
      <point x="1957" y="745" type="line"/>
      <point x="1852" y="807"/>
      <point x="1749" y="831"/>
      <point x="1575" y="831" type="curve" smooth="yes"/>
    </contour>
    <contour>
      <point x="1155" y="1247" type="line"/>
      <point x="1155" y="1143" type="line"/>
      <point x="1808" y="1143" type="line"/>
      <point x="1808" y="1247" type="line"/>
    </contour>
    <component base="k-deva"/>
    <component base="ta-deva" xOffset="1766"/>
  </outline>
</glyph>
<glyph name="k_ta-deva" format="1">
  <advance width="1777"/>
  <outline>
    <contour>
      <point x="1085" y="1247" type="line"/>
      <point x="1085" y="1143" type="line"/>
      <point x="1800" y="1143" type="line"/>
      <point x="1800" y="1247" type="line"/>
    </contour>
    <contour>
      <point x="1019" y="499" type="line"/>
      <point x="1158" y="685"/>
      <point x="1268" y="765"/>
      <point x="1394" y="765" type="curve" smooth="yes"/>
      <point x="1518" y="765"/>
      <point x="1582" y="692"/>
      <point x="1582" y="551" type="curve" smooth="yes"/>
      <point x="1582" y="440"/>
      <point x="1544" y="320"/>
      <point x="1447" y="186" type="curve"/>
      <point x="1545" y="117" type="line"/>
      <point x="1660" y="263"/>
      <point x="1702" y="422"/>
      <point x="1702" y="543" type="curve" smooth="yes"/>
      <point x="1702" y="791"/>
      <point x="1545" y="879"/>
      <point x="1396" y="879" type="curve" smooth="yes"/>
      <point x="1259" y="879"/>
      <point x="1138" y="813"/>
      <point x="1019" y="673" type="curve"/>
    </contour>
    <component base="t_ta-deva"/>
    <contour>
      <point x="1018" y="1168" type="move" name="top"/>
    </contour>
    <contour>
      <point x="1018" y="28" type="move" name="bottom"/>
    </contour>
    <contour>
      <point x="1016" y="1168" type="move" name="topcandra"/>
    </contour>
  </outline>
</glyph>
<glyph name="ka_ra-deva.alt" format="1">
  <advance width="1451"/>
  <outline>
    <contour>
      <point x="987" y="861"/>
      <point x="879" y="800"/>
      <point x="780" y="678" type="curve"/>
      <point x="782" y="519" type="line"/>
      <point x="899" y="671"/>
      <point x="1002" y="746"/>
      <point x="1100" y="746" type="curve" smooth="yes"/>
      <point x="1181" y="746"/>
      <point x="1256" y="696"/>
      <point x="1256" y="569" type="curve" smooth="yes"/>
      <point x="1256" y="474"/>
      <point x="1222" y="362"/>
      <point x="1133" y="244" type="curve"/>
      <point x="1227" y="170" type="line"/>
      <point x="1333" y="301"/>
      <point x="1374" y="445"/>
      <point x="1374" y="563" type="curve" smooth="yes"/>
      <point x="1374" y="755"/>
      <point x="1250" y="861"/>
      <point x="1109" y="861" type="curve" smooth="yes"/>
    </contour>
    <contour>
      <point x="124" y="200" type="line"/>
      <point x="202" y="105" type="line"/>
      <point x="762" y="545" type="line"/>
      <point x="715" y="632" type="line"/>
    </contour>
    <contour>
      <point x="194" y="936"/>
      <point x="115" y="897"/>
      <point x="50" y="861" type="curve"/>
      <point x="102" y="753" type="line"/>
      <point x="167" y="784"/>
      <point x="241" y="817"/>
      <point x="300" y="811" type="curve" smooth="yes"/>
      <point x="424" y="801"/>
      <point x="504" y="700"/>
      <point x="636" y="515" type="curve"/>
      <point x="714" y="557" type="line"/>
      <point x="533" y="851"/>
      <point x="428" y="918"/>
      <point x="304" y="927" type="curve" smooth="yes"/>
    </contour>
    <contour>
      <point x="689" y="1160" type="line"/>
      <point x="689" y="-1" type="line"/>
      <point x="815" y="-1" type="line"/>
      <point x="815" y="1160" type="line"/>
    </contour>
    <contour>
      <point x="-12" y="1247" type="line"/>
      <point x="-12" y="1143" type="line"/>
      <point x="1464" y="1143" type="line"/>
      <point x="1464" y="1247" type="line"/>
    </contour>
    <contour>
      <point x="752" y="1168" type="move" name="top"/>
    </contour>
    <contour>
      <point x="752" y="28" type="move" name="bottom"/>
    </contour>
    <contour>
      <point x="755" y="1168" type="move" name="topcandra"/>
    </contour>
  </outline>
</glyph>
<glyph name="kh_kha-deva" format="1">
  <advance width="2683"/>
  <outline>
    <contour>
      <point x="377" y="1190" type="line"/>
      <point x="377" y="831" type="line" smooth="yes"/>
      <point x="377" y="717"/>
      <point x="349" y="665"/>
      <point x="257" y="665" type="curve" smooth="yes"/>
      <point x="225" y="665"/>
      <point x="190" y="673"/>
      <point x="150" y="706" type="curve"/>
      <point x="65" y="649" type="line"/>
      <point x="237" y="123"/>
      <point x="502" y="-56"/>
      <point x="806" y="-56" type="curve" smooth="yes"/>
      <point x="875" y="-56"/>
      <point x="979" y="-51"/>
      <point x="1067" y="-8" type="curve"/>
      <point x="1037" y="96" type="line"/>
      <point x="981" y="73"/>
      <point x="902" y="55"/>
      <point x="802" y="55" type="curve" smooth="yes"/>
      <point x="544" y="55"/>
      <point x="322" y="236"/>
      <point x="198" y="614" type="curve"/>
      <point x="175" y="585" type="line"/>
      <point x="215" y="571"/>
      <point x="256" y="561"/>
      <point x="298" y="561" type="curve" smooth="yes"/>
      <point x="409" y="561"/>
      <point x="504" y="630"/>
      <point x="504" y="839" type="curve" smooth="yes"/>
      <point x="504" y="1191" type="line"/>
    </contour>
    <contour>
      <point x="777" y="941"/>
      <point x="611" y="864"/>
      <point x="610" y="610" type="curve" smooth="yes"/>
      <point x="609" y="431"/>
      <point x="690" y="277"/>
      <point x="923" y="277" type="curve" smooth="yes"/>
      <point x="1069" y="277"/>
      <point x="1209" y="339"/>
      <point x="1267" y="483" type="curve"/>
      <point x="1218" y="584" type="line"/>
      <point x="1177" y="453"/>
      <point x="1062" y="387"/>
      <point x="939" y="387" type="curve" smooth="yes"/>
      <point x="791" y="387"/>
      <point x="739" y="465"/>
      <point x="740" y="613" type="curve" smooth="yes"/>
      <point x="742" y="789"/>
      <point x="845" y="833"/>
      <point x="1001" y="833" type="curve" smooth="yes"/>
      <point x="1075" y="833"/>
      <point x="1156" y="823"/>
      <point x="1228" y="801" type="curve"/>
      <point x="1239" y="900" type="line"/>
      <point x="1170" y="927"/>
      <point x="1085" y="938"/>
      <point x="1001" y="939" type="curve" smooth="yes"/>
    </contour>
    <contour>
      <point x="-12" y="1247" type="line"/>
      <point x="-12" y="1143" type="line"/>
      <point x="1115" y="1143" type="line"/>
      <point x="1115" y="1247" type="line"/>
    </contour>
    <component base="kha-deva" xOffset="1094"/>
    <contour>
      <point x="142" y="27" type="move" name="nukta"/>
    </contour>
    <contour>
      <point x="448" y="1168" type="move" name="top"/>
    </contour>
    <contour>
      <point x="824" y="1167" type="move" name="topcandra"/>
    </contour>
    <contour>
      <point x="772" y="0" type="move" name="bottom"/>
    </contour>
  </outline>
</glyph>
<glyph name="l_la-deva" format="1">
  <advance width="2345"/>
  <outline>
    <component base="l-deva"/>
    <component base="la-deva" xOffset="941"/>
    <contour>
      <point x="2073" y="1168" type="move" name="top"/>
    </contour>
    <contour>
      <point x="2071" y="28" type="move" name="bottom"/>
    </contour>
    <contour>
      <point x="1616" y="1168" type="move" name="topcandra"/>
    </contour>
  </outline>
</glyph>
<glyph name="l_la-deva.loclMAR" format="1">
  <advance width="1298"/>
  <outline>
    <contour>
      <point x="-12" y="1247" type="line"/>
      <point x="-12" y="1143" type="line"/>
      <point x="1341" y="1143" type="line"/>
      <point x="1341" y="1247" type="line"/>
    </contour>
    <contour>
      <point x="933" y="1191" type="line"/>
      <point x="933" y="886" type="line"/>
      <point x="1060" y="886" type="line"/>
      <point x="1060" y="1191" type="line"/>
    </contour>
    <contour>
      <point x="733" y="950"/>
      <point x="602" y="839"/>
      <point x="602" y="640" type="curve" smooth="yes"/>
      <point x="602" y="610"/>
      <point x="605" y="572"/>
      <point x="613" y="532" type="curve"/>
      <point x="723" y="546" type="line"/>
      <point x="720" y="568"/>
      <point x="718" y="602"/>
      <point x="718" y="623" type="curve" smooth="yes"/>
      <point x="718" y="760"/>
      <point x="787" y="838"/>
      <point x="905" y="838" type="curve" smooth="yes"/>
      <point x="1027" y="838"/>
      <point x="1085" y="759"/>
      <point x="1085" y="633" type="curve" smooth="yes"/>
      <point x="1085" y="510"/>
      <point x="1050" y="391"/>
      <point x="922" y="257" type="curve"/>
      <point x="1028" y="208" type="line"/>
      <point x="1159" y="355"/>
      <point x="1201" y="493"/>
      <point x="1201" y="631" type="curve" smooth="yes"/>
      <point x="1201" y="834"/>
      <point x="1090" y="950"/>
      <point x="906" y="950" type="curve" smooth="yes"/>
    </contour>
    <contour>
      <point x="211" y="951"/>
      <point x="97" y="850"/>
      <point x="97" y="647" type="curve" smooth="yes"/>
      <point x="97" y="472"/>
      <point x="172" y="322"/>
      <point x="289" y="213" type="curve"/>
      <point x="387" y="271" type="line"/>
      <point x="259" y="378"/>
      <point x="217" y="503"/>
      <point x="217" y="633" type="curve" smooth="yes"/>
      <point x="217" y="792"/>
      <point x="301" y="840"/>
      <point x="393" y="840" type="curve" smooth="yes"/>
      <point x="507" y="840"/>
      <point x="583" y="764"/>
      <point x="633" y="648" type="curve"/>
      <point x="668" y="737" type="line"/>
      <point x="601" y="890"/>
      <point x="503" y="951"/>
      <point x="374" y="951" type="curve" smooth="yes"/>
    </contour>
    <contour>
      <point x="740" y="313"/>
      <point x="609" y="203"/>
      <point x="609" y="4" type="curve" smooth="yes"/>
      <point x="609" y="-25"/>
      <point x="612" y="-56"/>
      <point x="620" y="-88" type="curve"/>
      <point x="729" y="-74" type="line"/>
      <point x="726" y="-53"/>
      <point x="725" y="-33"/>
      <point x="725" y="-13" type="curve" smooth="yes"/>
      <point x="725" y="124"/>
      <point x="793" y="202"/>
      <point x="911" y="202" type="curve" smooth="yes"/>
      <point x="1028" y="202"/>
      <point x="1091" y="133"/>
      <point x="1091" y="3" type="curve" smooth="yes"/>
      <point x="1091" y="-121"/>
      <point x="1055" y="-237"/>
      <point x="881" y="-366" type="curve"/>
      <point x="946" y="-452" type="line"/>
      <point x="1160" y="-303"/>
      <point x="1206" y="-146"/>
      <point x="1206" y="2" type="curve" smooth="yes"/>
      <point x="1206" y="203"/>
      <point x="1092" y="313"/>
      <point x="912" y="313" type="curve" smooth="yes"/>
    </contour>
    <contour>
      <point x="219" y="315"/>
      <point x="106" y="214"/>
      <point x="106" y="14" type="curve" smooth="yes"/>
      <point x="106" y="-177"/>
      <point x="199" y="-325"/>
      <point x="388" y="-448" type="curve"/>
      <point x="444" y="-364" type="line"/>
      <point x="280" y="-251"/>
      <point x="225" y="-138"/>
      <point x="225" y="3" type="curve" smooth="yes"/>
      <point x="225" y="156"/>
      <point x="309" y="204"/>
      <point x="401" y="204" type="curve" smooth="yes"/>
      <point x="515" y="204"/>
      <point x="591" y="128"/>
      <point x="641" y="12" type="curve"/>
      <point x="675" y="101" type="line"/>
      <point x="609" y="254"/>
      <point x="510" y="315"/>
      <point x="383" y="315" type="curve" smooth="yes"/>
    </contour>
    <contour>
      <point x="996" y="1168" type="move" name="top"/>
    </contour>
    <contour>
      <point x="918" y="-373" type="move" name="bottom"/>
    </contour>
    <contour>
      <point x="692" y="1168" type="move" name="topcandra"/>
    </contour>
  </outline>
</glyph>
<glyph name="lacute.a" format="1">
  <advance width="490"/>
  <outline>
    <contour>
      <point x="176" y="0" type="line"/>
      <point x="313" y="0" type="line"/>
      <point x="313" y="1464" type="line"/>
      <point x="176" y="1464" type="line"/>
    </contour>
    <contour>
      <point x="490" y="1779" type="line"/>
      <point x="329" y="1779" type="line"/>
      <point x="143" y="1555" type="line"/>
      <point x="261" y="1555" type="line"/>
    </contour>
  </outline>
</glyph>
<glyph name="lcaron.a" format="1">
  <advance width="517"/>
  <outline>
    <contour>
      <point x="176" y="0" type="line"/>
      <point x="313" y="0" type="line"/>
      <point x="313" y="1464" type="line"/>
      <point x="176" y="1464" type="line"/>
    </contour>
    <contour>
      <point x="508" y="1122" type="line"/>
      <point x="532" y="1441" type="line"/>
      <point x="532" y="1551" type="line"/>
      <point x="430" y="1551" type="line"/>
      <point x="436" y="1122" type="line"/>
    </contour>
  </outline>
</glyph>
<glyph name="p_la-deva" format="1">
  <advance width="1198"/>
  <outline>
    <contour>
      <point x="166" y="1178" type="line"/>
      <point x="166" y="747" type="line" smooth="yes"/>
      <point x="166" y="504"/>
      <point x="277" y="379"/>
      <point x="504" y="379" type="curve" smooth="yes"/>
      <point x="626" y="379"/>
      <point x="771" y="438"/>
      <point x="861" y="550" type="curve"/>
      <point x="846" y="682" type="line"/>
      <point x="747" y="553"/>
      <point x="625" y="494"/>
      <point x="511" y="493" type="curve" smooth="yes"/>
      <point x="345" y="492"/>
      <point x="293" y="581"/>
      <point x="293" y="730" type="curve" smooth="yes"/>
      <point x="293" y="1178" type="line"/>
    </contour>
    <contour>
      <point x="820" y="1191" type="line"/>
      <point x="820" y="114" type="line"/>
      <point x="946" y="114" type="line"/>
      <point x="946" y="1191" type="line"/>
    </contour>
    <contour>
      <point x="-12" y="1247" type="line"/>
      <point x="-12" y="1143" type="line"/>
      <point x="1211" y="1143" type="line"/>
      <point x="1211" y="1247" type="line"/>
    </contour>
    <component base="add" xOffset="81"/>
    <contour>
      <point x="883" y="1168" type="move" name="top"/>
    </contour>
    <contour>
      <point x="884" y="-489" type="move" name="bottom"/>
    </contour>
    <contour>
      <point x="564" y="1168" type="move" name="topcandra"/>
    </contour>
  </outline>
</glyph>
<glyph name="parenleft.numr" format="1">
  <advance width="470"/>
  <outline>
    <contour>
      <point x="312" y="391" type="curve" name="hr00"/>
      <point x="389" y="432" type="line"/>
      <point x="281" y="594"/>
      <point x="241" y="764"/>
      <point x="241" y="946" type="curve" smooth="yes"/>
      <point x="241" y="1127"/>
      <point x="281" y="1298"/>
      <point x="389" y="1457" type="curve"/>
      <point x="312" y="1497" type="line"/>
      <point x="197" y="1334"/>
      <point x="134" y="1172"/>
      <point x="134" y="946" type="curve" smooth="yes"/>
      <point x="134" y="718"/>
      <point x="197" y="555"/>
    </contour>
  </outline>
</glyph>
<glyph name="reph-deva" format="1">
  <advance width="540"/>
  <outline>
    <contour>
      <point x="252" y="1684"/>
      <point x="133" y="1602"/>
      <point x="133" y="1461" type="curve" smooth="yes"/>
      <point x="133" y="1383"/>
      <point x="163" y="1290"/>
      <point x="250" y="1200" type="curve"/>
      <point x="322" y="1226" type="line"/>
      <point x="277" y="1274"/>
      <point x="237" y="1347"/>
      <point x="237" y="1432" type="curve" smooth="yes"/>
      <point x="237" y="1537"/>
      <point x="305" y="1574"/>
      <point x="418" y="1574" type="curve" smooth="yes"/>
      <point x="498" y="1574"/>
      <point x="560" y="1550"/>
      <point x="607" y="1523" type="curve"/>
      <point x="640" y="1621" type="line"/>
      <point x="587" y="1659"/>
      <point x="501" y="1684"/>
      <point x="405" y="1684" type="curve" smooth="yes"/>
    </contour>
    <contour>
      <point x="422" y="1570" type="move" name="topcandra"/>
    </contour>
    <contour>
      <point x="274" y="1168" type="move" name="_top"/>
    </contour>
  </outline>
</glyph>
<glyph name="slash.frac" format="1">
  <advance width="171"/>
  <outline>
    <contour>
      <point x="-240" y="-25" type="line" name="hr00"/>
      <point x="506" y="1370" type="line"/>
      <point x="406" y="1370" type="line"/>
      <point x="-340" y="-25" type="line"/>
    </contour>
  </outline>
</glyph>
<glyph name="tha_ra-deva" format="1">
  <advance width="1208"/>
  <outline>
    <contour>
      <point x="254" y="68" type="line"/>
      <point x="331" y="-27" type="line"/>
      <point x="901" y="400" type="line"/>
      <point x="834" y="450" type="line"/>
    </contour>
    <component base="tha-deva"/>
    <contour>
      <point x="933" y="1168" type="move" name="top"/>
    </contour>
    <contour>
      <point x="932" y="28" type="move" name="bottom"/>
    </contour>
    <contour>
      <point x="674" y="1167" type="move" name="topcandra"/>
    </contour>
  </outline>
</glyph>
<glyph name="tth_ttha-deva" format="1">
  <advance width="1071"/>
  <outline>
    <contour>
      <point x="-12" y="1247" type="line"/>
      <point x="-12" y="1143" type="line"/>
      <point x="1084" y="1143" type="line"/>
      <point x="1084" y="1247" type="line"/>
    </contour>
    <contour>
      <point x="638" y="1208" type="line"/>
      <point x="638" y="934" type="line"/>
      <point x="760" y="922" type="line"/>
      <point x="762" y="1208" type="line"/>
    </contour>
    <contour>
      <point x="260" y="1009"/>
      <point x="97" y="874"/>
      <point x="97" y="660" type="curve" smooth="yes"/>
      <point x="97" y="442"/>
      <point x="246" y="308"/>
      <point x="535" y="308" type="curve" smooth="yes"/>
      <point x="833" y="308"/>
      <point x="984" y="461"/>
      <point x="984" y="665" type="curve" smooth="yes"/>
      <point x="984" y="896"/>
      <point x="819" y="1009"/>
      <point x="551" y="1009" type="curve" smooth="yes"/>
    </contour>
    <contour>
      <point x="765" y="899"/>
      <point x="861" y="814"/>
      <point x="861" y="669" type="curve" smooth="yes"/>
      <point x="861" y="509"/>
      <point x="755" y="420"/>
      <point x="534" y="420" type="curve" smooth="yes"/>
      <point x="319" y="420"/>
      <point x="224" y="507"/>
      <point x="224" y="652" type="curve" smooth="yes"/>
      <point x="224" y="811"/>
      <point x="330" y="899"/>
      <point x="551" y="899" type="curve" smooth="yes"/>
    </contour>
    <contour>
      <point x="638" y="388" type="line"/>
      <point x="638" y="123" type="line"/>
      <point x="760" y="112" type="line"/>
      <point x="760" y="388" type="line"/>
    </contour>
    <contour>
      <point x="259" y="198"/>
      <point x="95" y="63"/>
      <point x="95" y="-153" type="curve" smooth="yes"/>
      <point x="95" y="-372"/>
      <point x="245" y="-506"/>
      <point x="535" y="-506" type="curve" smooth="yes"/>
      <point x="836" y="-506"/>
      <point x="988" y="-353"/>
      <point x="988" y="-148" type="curve" smooth="yes"/>
      <point x="987" y="81"/>
      <point x="820" y="198"/>
      <point x="551" y="198" type="curve" smooth="yes"/>
    </contour>
    <contour>
      <point x="767" y="89"/>
      <point x="863" y="2"/>
      <point x="863" y="-144" type="curve" smooth="yes"/>
      <point x="863" y="-306"/>
      <point x="756" y="-395"/>
      <point x="534" y="-395" type="curve" smooth="yes"/>
      <point x="317" y="-395"/>
      <point x="221" y="-308"/>
      <point x="221" y="-161" type="curve" smooth="yes"/>
      <point x="221" y="0"/>
      <point x="328" y="89"/>
      <point x="551" y="89" type="curve" smooth="yes"/>
    </contour>
    <contour>
      <point x="700" y="1168" type="move" name="top"/>
    </contour>
    <contour>
      <point x="580" y="-464" type="move" name="bottom"/>
    </contour>
    <contour>
      <point x="550" y="1168" type="move" name="topcandra"/>
    </contour>
  </outline>
</glyph>
<glyph name="two.numr" format="1">
  <advance width="777"/>
  <outline>
    <contour>
      <point x="125" y="547" type="line"/>
      <point x="663" y="547" type="line"/>
      <point x="663" y="642" type="line"/>
      <point x="302" y="642" type="line"/>
      <point x="486" y="828"/>
      <point x="619" y="955"/>
      <point x="619" y="1115" type="curve" smooth="yes"/>
      <point x="619" y="1284"/>
      <point x="515" y="1370"/>
      <point x="361" y="1370" type="curve" smooth="yes"/>
      <point x="256" y="1370"/>
      <point x="159" y="1306"/>
      <point x="103" y="1219" type="curve"/>
      <point x="170" y="1157" type="line"/>
      <point x="215" y="1224"/>
      <point x="277" y="1277"/>
      <point x="348" y="1277" type="curve" smooth="yes"/>
      <point x="447" y="1277"/>
      <point x="510" y="1209"/>
      <point x="510" y="1101" type="curve" smooth="yes"/>
      <point x="510" y="973"/>
      <point x="383" y="849"/>
      <point x="125" y="613" type="curve"/>
    </contour>
  </outline>
</glyph>
<glyph name="uni013C.a" format="1">
  <advance width="490"/>
  <outline>
    <contour>
      <point x="176" y="0" type="line"/>
      <point x="313" y="0" type="line"/>
      <point x="313" y="1464" type="line"/>
      <point x="176" y="1464" type="line"/>
    </contour>
    <contour>
      <point x="188" y="-100" type="curve"/>
      <point x="157" y="-171" type="line"/>
      <point x="214" y="-184"/>
      <point x="265" y="-208"/>
      <point x="265" y="-265" type="curve" smooth="yes"/>
      <point x="265" y="-319"/>
      <point x="189" y="-348"/>
      <point x="80" y="-363" type="curve"/>
      <point x="95" y="-436" type="line"/>
      <point x="241" y="-423"/>
      <point x="375" y="-369"/>
      <point x="375" y="-255" type="curve" smooth="yes"/>
      <point x="375" y="-166"/>
      <point x="316" y="-122"/>
    </contour>
  </outline>
</glyph>
<glyph name="uni0302.cap" format="1">
  <advance width="600"/>
  <outline>
    <contour>
      <point x="-148" y="1448" type="line"/>
      <point x="-4" y="1591" type="line"/>
      <point x="4" y="1591" type="line"/>
      <point x="148" y="1448" type="line"/>
      <point x="263" y="1448" type="line"/>
      <point x="66" y="1673" type="line"/>
      <point x="-66" y="1673" type="line"/>
      <point x="-263" y="1448" type="line"/>
    </contour>
    <contour>
      <point x="0" y="1391" type="move" name="_mark0"/>
    </contour>
  </outline>
</glyph>
<glyph name="uni03060301.cap" format="1">
  <advance width="0"/>
  <outline>
    <contour>
      <point x="-77" y="1640" type="line" name="hr00"/>
      <point x="10" y="1640" type="line"/>
      <point x="207" y="1849" type="line"/>
      <point x="79" y="1849" type="line"/>
    </contour>
    <contour>
      <point x="0" y="1452" type="curve" smooth="yes"/>
      <point x="153" y="1452"/>
      <point x="229" y="1561"/>
      <point x="242" y="1666" type="curve"/>
      <point x="162" y="1666" type="line"/>
      <point x="146" y="1595"/>
      <point x="100" y="1531"/>
      <point x="0" y="1531" type="curve" smooth="yes"/>
      <point x="-100" y="1531"/>
      <point x="-146" y="1595"/>
      <point x="-162" y="1666" type="curve"/>
      <point x="-242" y="1666" type="line"/>
      <point x="-229" y="1561"/>
      <point x="-153" y="1452"/>
    </contour>
  </outline>
</glyph>
<glyph name="uni030B.cap" format="1">
  <advance width="600"/>
  <outline>
    <contour>
      <point x="-106" y="1448" type="line"/>
      <point x="61" y="1673" type="line"/>
      <point x="-73" y="1673" type="line"/>
      <point x="-209" y="1448" type="line"/>
    </contour>
    <contour>
      <point x="104" y="1448" type="line"/>
      <point x="205" y="1448" type="line"/>
      <point x="374" y="1673" type="line"/>
      <point x="240" y="1673" type="line"/>
    </contour>
    <contour>
      <point x="0" y="1391" type="move" name="_mark0"/>
    </contour>
  </outline>
</glyph>
<glyph name="uni1E39.a" format="1">
  <advance width="490"/>
  <outline>
    <contour>
      <point x="176" y="0" type="line"/>
      <point x="313" y="0" type="line"/>
      <point x="313" y="1464" type="line"/>
      <point x="176" y="1464" type="line"/>
    </contour>
    <contour>
      <point x="1" y="1690" type="line"/>
      <point x="488" y="1690" type="line"/>
      <point x="488" y="1791" type="line"/>
      <point x="1" y="1791" type="line"/>
    </contour>
    <contour>
      <point x="245" y="-412" type="curve" smooth="yes"/>
      <point x="302" y="-412"/>
      <point x="342" y="-372"/>
      <point x="342" y="-312" type="curve" smooth="yes"/>
      <point x="342" y="-255"/>
      <point x="302" y="-215"/>
      <point x="245" y="-215" type="curve" smooth="yes"/>
      <point x="189" y="-215"/>
      <point x="148" y="-255"/>
      <point x="148" y="-312" type="curve" smooth="yes"/>
      <point x="148" y="-372"/>
      <point x="189" y="-412"/>
    </contour>
  </outline>
</glyph>
<glyph name="v_na-deva" format="1">
  <advance width="1088"/>
  <outline>
    <contour>
      <point x="783" y="357" type="line"/>
      <point x="738" y="441" type="line"/>
      <point x="183" y="47" type="line"/>
      <point x="239" y="-44" type="line"/>
      <point x="450" y="-121" type="line"/>
      <point x="472" y="-101"/>
      <point x="480" y="-82"/>
      <point x="481" y="-63" type="curve" smooth="yes"/>
      <point x="481" y="-43"/>
      <point x="474" y="-23"/>
      <point x="461" y="-4" type="curve" smooth="yes"/>
      <point x="392" y="94" type="line"/>
      <point x="374" y="40" type="line"/>
    </contour>
    <component base="va-deva"/>
  </outline>
</glyph>
